<?xml version="1.0" encoding="utf-8"?>
<svg id="master-artboard" viewBox="0 0 1400 980" version="1.1" xmlns="http://www.w3.org/2000/svg" x="0px" y="0px" width="1400px" height="980px" enable-background="new 0 0 1400 980">
<path d="M 973.4550170898438 500.0350036621094 L 973.4550170898438 445.4169921875 L 951.2689819335938 429.0060119628906 L 905.1849975585938 445.4169921875 L 876.1669921875 416.40301513671875 L 905.1849975585938 375.4389953613281 L 754.385009765625 396.37701416015625 L 732.2249755859375 423.51300048828125 L 671.1380004882812 475.5950012207031 L 658.75 523.9310302734375 L 995.64501953125 523.9310302734375 Z" fill="#4C454F" transform="matrix(0.9999999999999999, 0, 0, 0.9999999999999999, 5.4569682106375694e-12, 1.3642420526593924e-12)"/><path d="M997.551,524.762H657.678l12.721-49.628l0.2-0.17l61.086-52.082l22.262-27.282l0.323-0.044l152.703-21.203l-29.723,41.96&#10;&#9;&#9;&#9;&#9;l28.149,28.146l46.006-16.383l22.88,16.924v54.71L997.551,524.762z M659.821,523.1h333.918l-21.115-22.738v-54.525&#10;&#9;&#9;&#9;&#9;l-21.493-15.898l-46.162,16.439l-29.885-29.882l28.312-39.968l-148.573,20.629l-21.954,26.884l-60.991,52.018L659.821,523.1z" transform="matrix(0.9999999999999999, 0, 0, 0.9999999999999999, 5.4569682106375694e-12, 1.3642420526593924e-12)"/><path d="M 792.3400268554688 339.0169982910156 L 831.791015625 310.5790100097656 L 799.3610229492188 313.9949951171875 L 807.89599609375 288.39300537109375 L 699.9959716796875 366.4429931640625 Z" fill="#4C454F" transform="matrix(0.9999999999999999, 0, 0, 0.9999999999999999, 5.4569682106375694e-12, 1.3642420526593924e-12)"/><path d="M695.557,368.629l113.945-82.423l-8.943,26.827l34.255-3.607l-42.237,30.389L695.557,368.629z M806.291,290.579&#10;&#9;&#9;&#9;&#9;l-101.855,73.679l87.532-25.998l36.801-26.527l-30.604,3.223L806.291,290.579z" transform="matrix(0.9999999999999999, 0, 0, 0.9999999999999999, 5.4569682106375694e-12, 1.3642420526593924e-12)"/><path d="M 732.2249755859375 423.51300048828125 L 754.385009765625 396.37701416015625 L 905.1849975585938 375.4389953613281 L 862.5159912109375 348.1300048828125 L 831.791015625 310.5790100097656 L 792.3400268554688 339.0169982910156 L 699.9959716796875 366.4429931640625 L 807.89599609375 288.39300537109375 L 760.10498046875 226.947998046875 L 719.14501953125 170.625 L 696.9539794921875 170.625 L 662.4119873046875 234.02099609375 L 662.4119873046875 283.8869934082031 L 634.7059936523438 326.7969970703125 L 584.8400268554688 339.29400634765625 L 554.9199829101562 411.322998046875 L 546.7620239257812 523.9310302734375 L 658.75 523.9310302734375 L 671.1380004882812 475.5950012207031 Z" fill="#5C525F" transform="matrix(0.9999999999999999, 0, 0, 0.9999999999999999, 5.4569682106375694e-12, 1.3642420526593924e-12)"/><path d="M659.395,524.762H545.868l8.284-113.758l30.081-72.414l49.953-12.519l27.395-42.429v-49.833l34.88-64.015h23.106&#10;&#9;&#9;&#9;&#9;l41.21,56.666l48.304,62.102l-104.646,75.696l87.532-25.998l39.972-28.813l31.136,38.053l44.453,28.452l-152.706,21.203&#10;&#9;&#9;&#9;&#9;l-21.954,26.884l-60.991,52.018L659.395,524.762z M547.655,523.1h110.449l12.294-47.966l0.2-0.17l61.086-52.082l22.262-27.282&#10;&#9;&#9;&#9;&#9;l0.323-0.044l148.57-20.629l-40.969-26.27l-30.229-36.945l-39.066,28.104l-97.02,28.815l111.156-80.405l-47.264-60.765&#10;&#9;&#9;&#9;&#9;l-40.728-56.003h-21.274l-34.205,62.777v49.899l-0.133,0.205l-27.883,43.187l-49.779,12.476l-29.708,71.519L547.655,523.1z" transform="matrix(0.9999999999999999, 0, 0, 0.9999999999999999, 5.4569682106375694e-12, 1.3642420526593924e-12)"/><path d="M 584.8400268554688 339.29400634765625 L 634.7059936523438 326.7969970703125 L 662.4119873046875 283.8869934082031 L 662.4119873046875 234.02099609375 L 696.9539794921875 170.625 L 647.4580078125 129.66200256347656 L 618.4409790039062 208.1719970703125 L 577.47998046875 245.7220001220703 L 550.1699829101562 278.1510009765625 L 550.1699829101562 336.1809997558594 L 524.5689697265625 356.6629943847656 L 510.91400146484375 346.4219970703125 L 485.31201171875 366.90399169921875 L 485.31201171875 406.1629943847656 L 417.0419921875 418.1080017089844 L 391.4389953613281 523.9310302734375 L 469.95001220703125 523.9310302734375 L 546.7620239257812 523.9310302734375 L 554.9199829101562 411.322998046875 Z" fill="#4C454F" transform="matrix(0.9999999999999999, 0, 0, 0.9999999999999999, 5.4569682106375694e-12, 1.3642420526593924e-12)"/><path d="M547.535,524.762H390.384l25.979-107.378l68.119-11.919v-38.959l26.417-21.134l13.655,10.241l24.787-19.831v-57.934&#10;&#9;&#9;&#9;&#9;l27.505-32.662l40.886-37.491l29.354-79.421l50.927,42.147l-34.769,63.812v49.899l-0.133,0.205l-27.883,43.187l-49.779,12.476&#10;&#9;&#9;&#9;&#9;l-29.708,71.519L547.535,524.762z M392.496,523.1h153.494l8.112-111.972l0.051-0.124l30.081-72.414l49.953-12.519l27.395-42.429&#10;&#9;&#9;&#9;&#9;v-49.833l34.316-62.98l-48.065-39.778l-28.68,77.598l-41.11,37.687l-27.04,32.12v58.125l-26.417,21.134l-13.655-10.241&#10;&#9;&#9;&#9;&#9;l-24.787,19.831v39.557l-68.422,11.973L392.496,523.1z" transform="matrix(0.9999999999999999, 0, 0, 0.9999999999999999, 5.4569682106375694e-12, 1.3642420526593924e-12)"/><path fill="#3C798C" d="M701.278,594.131c-48.84,0-72.004-49.343-72.004-49.343c-47.331-109.264-129.905-105.739-129.905-105.739&#10;&#9;&#9;&#9;&#9;s-82.578-3.525-129.905,105.739c0,0-23.164,49.343-72.004,49.343v17.119h403.818V594.131z" transform="matrix(0.9999999999999999, 0, 0, 0.9999999999999999, 5.4569682106375694e-12, 1.3642420526593924e-12)"/><path d="M702.109,612.081h-405.48V593.3h0.831c47.76,0,71.022-48.376,71.252-48.865&#10;&#9;&#9;&#9;&#9;c44.721-103.247,121.2-106.229,129.773-106.229c0.542,0,0.853,0.011,0.91,0.013c0.005-0.001,0.315-0.013,0.858-0.013&#10;&#9;&#9;&#9;&#9;c8.573,0,85.049,2.982,129.784,106.251c0.219,0.467,23.506,48.843,71.241,48.843h0.831V612.081z M298.291,610.419h402.156&#10;&#9;&#9;&#9;&#9;v-15.462c-48.244-0.553-71.692-49.32-71.925-49.816c-44.323-102.319-119.808-105.273-128.269-105.273&#10;&#9;&#9;&#9;&#9;c-0.548,0-0.838,0.012-0.849,0.012c-0.081,0-0.372-0.012-0.919-0.012c-8.462,0-83.949,2.954-128.258,105.25&#10;&#9;&#9;&#9;&#9;c-0.244,0.518-23.692,49.286-71.936,49.839V610.419z" transform="matrix(0.9999999999999999, 0, 0, 0.9999999999999999, 5.4569682106375694e-12, 1.3642420526593924e-12)"/><path fill="#3C798C" d="M1089.624,593.529c-62.086,0-91.528-62.726-91.528-62.726c-60.164-138.89-165.133-134.41-165.133-134.41&#10;&#9;&#9;&#9;&#9;s-104.969-4.48-165.133,134.41c0,0-29.442,62.726-91.525,62.726v21.761h513.319V593.529z" transform="matrix(0.9999999999999999, 0, 0, 0.9999999999999999, 5.4569682106375694e-12, 1.3642420526593924e-12)"/><path d="M1090.455,616.121H575.474v-23.423h0.831c60.827,0,90.481-61.625,90.773-62.248&#10;&#9;&#9;&#9;&#9;c56.796-131.118,153.879-134.904,164.762-134.904c0.697,0,1.091,0.015,1.15,0.017c0.005-0.002,0.397-0.017,1.096-0.017&#10;&#9;&#9;&#9;&#9;c10.884,0,107.966,3.786,164.773,134.927c0.281,0.6,29.936,62.225,90.765,62.225h0.831V616.121z M577.136,614.459h511.657&#10;&#9;&#9;&#9;&#9;v-20.103c-61.34-0.553-91.154-62.571-91.449-63.2c-56.396-130.19-152.486-133.948-163.258-133.948&#10;&#9;&#9;&#9;&#9;c-0.704,0-1.077,0.015-1.088,0.016c-0.08-0.001-0.455-0.016-1.158-0.016c-10.771,0-106.861,3.758-163.247,133.925&#10;&#9;&#9;&#9;&#9;c-0.306,0.651-30.127,62.662-91.457,63.223V614.459z" transform="matrix(0.9999999999999999, 0, 0, 0.9999999999999999, 5.4569682106375694e-12, 1.3642420526593924e-12)"/><path fill="#9BBE2C" d="M928.546,593.473c0,0-68.273,0-133.889-54.996c0,0-91.408-87.095-181.018-87.095&#10;&#9;&#9;&#9;&#9;c-89.606,0-181.018,87.095-181.018,87.095c-65.612,54.996-133.886,54.996-133.886,54.996v2.462h629.81V593.473z" transform="matrix(0.9999999999999999, 0, 0, 0.9999999999999999, 5.4569682106375694e-12, 1.3642420526593924e-12)"/><path d="M929.377,596.766H297.905v-4.124h0.831c0.68,0,68.746-0.649,133.352-54.802c0.877-0.838,92.641-87.29,181.552-87.29&#10;&#9;&#9;&#9;&#9;c88.914,0,180.675,86.452,181.591,87.325c64.57,54.117,132.636,54.767,133.315,54.767h0.831V596.766z M299.567,595.104h628.148&#10;&#9;&#9;&#9;&#9;v-0.818c-8.021-0.248-72.375-3.863-133.592-55.172c-0.951-0.903-92.239-86.901-180.483-86.901&#10;&#9;&#9;&#9;&#9;c-88.242,0-179.533,85.998-180.445,86.866c-61.25,51.342-125.607,54.958-133.627,55.207V595.104z" transform="matrix(0.9999999999999999, 0, 0, 0.9999999999999999, 5.4569682106375694e-12, 1.3642420526593924e-12)"/><path fill="#C7EC3C" d="M1096.813,593.771c-33.621,0-67.238-7.526-92.743-22.584l-27.349-16.151&#10;&#9;&#9;&#9;&#9;c-51.012-30.111-134.482-30.111-185.491,0l-27.346,16.151c-25.504,15.058-59.125,22.584-92.746,22.584v16.017h425.674V593.771z" transform="matrix(0.9999999999999999, 0, 0, 0.9999999999999999, 5.4569682106375694e-12, 1.3642420526593924e-12)"/><path d="M1097.644,610.619H670.307v-17.68h0.831c34.993,0,67.781-7.979,92.323-22.469l27.346-16.151&#10;&#9;&#9;&#9;&#9;c24.797-14.638,57.884-22.698,93.167-22.698s68.372,8.061,93.17,22.698l27.349,16.151c24.542,14.489,57.329,22.469,92.32,22.469&#10;&#9;&#9;&#9;&#9;h0.831V610.619z M671.969,608.956h424.011v-14.355c-34.971-0.126-67.734-8.176-92.334-22.698l-27.349-16.151&#10;&#9;&#9;&#9;&#9;c-24.545-14.489-57.333-22.468-92.324-22.468c-34.99,0-67.778,7.979-92.321,22.468l-27.346,16.151&#10;&#9;&#9;&#9;&#9;c-24.6,14.522-57.363,22.572-92.337,22.698V608.956z" transform="matrix(0.9999999999999999, 0, 0, 0.9999999999999999, 5.4569682106375694e-12, 1.3642420526593924e-12)"/><path fill="#615040" d="M1180.966,608.563c0,9.255-7.501,16.756-16.755,16.756H235.787c-9.256,0-16.759-7.501-16.759-16.756l0,0&#10;&#9;&#9;&#9;&#9;c0-9.256,7.503-16.756,16.759-16.756h928.424C1173.465,591.807,1180.966,599.307,1180.966,608.563L1180.966,608.563z" transform="matrix(0.9999999999999999, 0, 0, 0.9999999999999999, 5.4569682106375694e-12, 1.3642420526593924e-12)"/><path d="M1164.211,626.15H235.787c-9.699,0-17.59-7.891-17.59-17.588c0-9.698,7.891-17.587,17.59-17.587h928.424&#10;&#9;&#9;&#9;&#9;c9.697,0,17.586,7.889,17.586,17.587C1181.797,618.26,1173.908,626.15,1164.211,626.15z M235.787,592.638&#10;&#9;&#9;&#9;&#9;c-8.783,0-15.927,7.144-15.927,15.925s7.145,15.925,15.927,15.925h928.424c8.78,0,15.924-7.144,15.924-15.925&#10;&#9;&#9;&#9;&#9;s-7.144-15.925-15.924-15.925H235.787z" transform="matrix(0.9999999999999999, 0, 0, 0.9999999999999999, 5.4569682106375694e-12, 1.3642420526593924e-12)"/><path fill="#FFFFFF" d="M886.307,241.999c2.688-4.835,4.224-10.398,4.224-16.323c0-18.582-15.064-33.644-33.644-33.644&#10;&#9;&#9;&#9;&#9;c-4.617,0-9.016,0.93-13.022,2.615c-8.452-14.371-24.065-24.022-41.941-24.022c-21.819,0-40.282,14.369-46.444,34.16&#10;&#9;&#9;&#9;&#9;c-0.724-0.057-1.454-0.094-2.191-0.094c-15.086,0-27.315,12.229-27.315,27.314c0,3.529,0.677,6.897,1.896,9.994H886.307z" transform="matrix(0.9999999999999999, 0, 0, 0.9999999999999999, 5.4569682106375694e-12, 1.3642420526593924e-12)"/><path d="M886.795,242.83H727.302l-0.208-0.527c-1.296-3.293-1.953-6.758-1.953-10.298c0-15.52,12.626-28.146,28.146-28.146&#10;&#9;&#9;&#9;&#9;c0.536,0,1.068,0.019,1.598,0.051c6.653-20.436,25.474-34.117,47.038-34.117c17.209,0,33.345,9.106,42.288,23.813&#10;&#9;&#9;&#9;&#9;c4.032-1.597,8.293-2.406,12.676-2.406c19.009,0,34.475,15.465,34.475,34.475c0,5.849-1.497,11.633-4.329,16.728L886.795,242.83z&#10;&#9;&#9;&#9;&#9; M728.439,241.167h157.373c2.544-4.742,3.887-10.088,3.887-15.492c0-18.093-14.72-32.813-32.813-32.813&#10;&#9;&#9;&#9;&#9;c-4.404,0-8.677,0.858-12.7,2.55l-0.67,0.282l-0.368-0.627c-8.566-14.564-24.363-23.612-41.226-23.612&#10;&#9;&#9;&#9;&#9;c-21.053,0-39.397,13.493-45.65,33.575l-0.197,0.634l-0.661-0.052c-0.703-0.055-1.411-0.092-2.127-0.092&#10;&#9;&#9;&#9;&#9;c-14.604,0-26.484,11.88-26.484,26.483C726.803,235.147,727.353,238.227,728.439,241.167z" transform="matrix(0.9999999999999999, 0, 0, 0.9999999999999999, 5.4569682106375694e-12, 1.3642420526593924e-12)"/><path fill="#FFFFFF" d="M508.103,313.879c5.529-2.242,9.434-7.657,9.434-13.991c0-8.34-6.761-15.1-15.099-15.1h-47.47&#10;&#9;&#9;&#9;&#9;c-5.081-12.811-17.557-21.883-32.176-21.883c-14.259,0-26.495,8.621-31.803,20.932c-1.458-0.271-2.954-0.43-4.49-0.43&#10;&#9;&#9;&#9;&#9;c-12.337,0-22.508,9.174-24.126,21.068c-6.271,0.12-11.627,3.961-13.961,9.404H508.103z" transform="matrix(0.9999999999999999, 0, 0, 0.9999999999999999, 5.4569682106375694e-12, 1.3642420526593924e-12)"/><path d="M508.265,314.71H347.15l0.497-1.159c2.436-5.678,7.881-9.495,14.005-9.877c1.987-12.076,12.546-21.097,24.846-21.097&#10;&#9;&#9;&#9;&#9;c1.311,0,2.623,0.109,3.992,0.331c5.745-12.678,18.351-20.833,32.3-20.833c14.428,0,27.216,8.569,32.736,21.883h46.911&#10;&#9;&#9;&#9;&#9;c8.784,0,15.93,7.146,15.93,15.931c0,6.516-3.907,12.309-9.953,14.761L508.265,314.71z M349.733,313.048h158.205&#10;&#9;&#9;&#9;&#9;c5.332-2.23,8.768-7.378,8.768-13.16c0-7.868-6.4-14.269-14.268-14.269h-48.035l-0.208-0.525&#10;&#9;&#9;&#9;&#9;c-5.146-12.975-17.473-21.358-31.403-21.358c-13.504,0-25.688,8.019-31.04,20.429l-0.262,0.609l-0.653-0.121&#10;&#9;&#9;&#9;&#9;c-1.506-0.28-2.925-0.417-4.338-0.417c-11.706,0-21.724,8.749-23.303,20.349l-0.096,0.705l-0.711,0.014&#10;&#9;&#9;&#9;&#9;C357.063,305.408,352.226,308.406,349.733,313.048z" transform="matrix(0.9999999999999999, 0, 0, 0.9999999999999999, 5.4569682106375694e-12, 1.3642420526593924e-12)"/><path fill="#3AB1C2" d="M854.375,725.827l-13.38,7.725c-27.128-29.458-61.004,5.404-61.004,5.404s33.876,34.862,61.004,5.403&#10;&#9;&#9;&#9;&#9;l13.38,7.726V725.827z" transform="matrix(0.9999999999999999, 0, 0, 0.9999999999999999, 5.4569682106375694e-12, 1.3642420526593924e-12)"/><path d="M816.102,757.016c-19.494,0-36.013-16.767-36.706-17.48l-0.563-0.579l0.563-0.58c0.693-0.713,17.209-17.48,36.706-17.48&#10;&#9;&#9;&#9;&#9;c9.339,0,17.764,3.905,25.05,11.606l14.055-8.115v29.138l-14.055-8.114C833.865,753.111,825.44,757.016,816.102,757.016z&#10;&#9;&#9;&#9;&#9; M781.181,738.956c3.124,2.978,18.138,16.397,34.921,16.397c9.051,0,17.22-3.888,24.282-11.557l0.45-0.49l12.71,7.338v-23.378&#10;&#9;&#9;&#9;&#9;l-12.71,7.338l-0.45-0.489c-7.063-7.669-15.231-11.558-24.282-11.558C799.316,722.558,784.304,735.978,781.181,738.956z" transform="matrix(0.9999999999999999, 0, 0, 0.9999999999999999, 5.4569682106375694e-12, 1.3642420526593924e-12)"/><path fill="#3AB1C2" d="M737.486,826.969l-8.762,5.058c-17.762-19.289-39.945,3.539-39.945,3.539s22.183,22.827,39.945,3.538&#10;&#9;&#9;&#9;&#9;l8.762,5.059V826.969z" transform="matrix(0.9999999999999999, 0, 0, 0.9999999999999999, 5.4569682106375694e-12, 1.3642420526593924e-12)"/><path d="M712.426,847.678c-12.885,0-23.784-11.063-24.242-11.533l-0.563-0.579l0.563-0.58&#10;&#9;&#9;&#9;&#9;c0.457-0.471,11.355-11.533,24.242-11.533c6.13,0,11.663,2.531,16.454,7.525l9.438-5.449v20.073l-9.438-5.449&#10;&#9;&#9;&#9;&#9;C724.089,845.147,718.556,847.678,712.426,847.678z M689.976,835.565c2.431,2.272,11.914,10.45,22.45,10.45&#10;&#9;&#9;&#9;&#9;c5.843,0,11.12-2.515,15.688-7.476l0.45-0.488l8.092,4.67v-14.313l-8.092,4.67l-0.45-0.488&#10;&#9;&#9;&#9;&#9;c-4.567-4.961-9.845-7.476-15.688-7.476C701.876,825.114,692.404,833.291,689.976,835.565z" transform="matrix(0.9999999999999999, 0, 0, 0.9999999999999999, 5.4569682106375694e-12, 1.3642420526593924e-12)"/><path fill="#3AB1C2" d="M582.626,666.424l-5.52,3.186c-11.187-12.147-25.157,2.229-25.157,2.229s13.97,14.377,25.157,2.229&#10;&#9;&#9;&#9;&#9;l5.52,3.187V666.424z" transform="matrix(0.9999999999999999, 0, 0, 0.9999999999999999, 5.4569682106375694e-12, 1.3642420526593924e-12)"/><path d="M566.841,679.773c-8.244,0-15.196-7.056-15.487-7.356l-0.563-0.579l0.563-0.58c0.292-0.3,7.243-7.355,15.487-7.355&#10;&#9;&#9;&#9;&#9;c3.876,0,7.377,1.567,10.417,4.66l6.199-3.577v13.707l-6.199-3.579C574.219,678.207,570.718,679.773,566.841,679.773z&#10;&#9;&#9;&#9;&#9; M553.157,671.838c1.821,1.654,7.468,6.273,13.684,6.273c3.59,0,6.838-1.55,9.654-4.608l0.45-0.489l4.849,2.8v-7.95l-4.849,2.799&#10;&#9;&#9;&#9;&#9;l-0.45-0.49c-2.816-3.057-6.064-4.607-9.654-4.607C560.624,665.564,554.979,670.185,553.157,671.838z" transform="matrix(0.9999999999999999, 0, 0, 0.9999999999999999, 5.4569682106375694e-12, 1.3642420526593924e-12)"/><path fill="#3AB1C2" d="M592.599,776.277l-11.652,6.727c-23.623-25.653-53.124,4.706-53.124,4.706s29.501,30.359,53.124,4.706&#10;&#9;&#9;&#9;&#9;l11.652,6.727V776.277z" transform="matrix(0.9999999999999999, 0, 0, 0.9999999999999999, 5.4569682106375694e-12, 1.3642420526593924e-12)"/><path d="M559.27,803.545c-17.021,0-31.438-14.633-32.042-15.256l-0.563-0.579l0.563-0.579&#10;&#9;&#9;&#9;&#9;c0.604-0.623,15.019-15.256,32.042-15.256c8.139,0,15.482,3.392,21.833,10.08l12.327-7.117v25.744l-12.327-7.117&#10;&#9;&#9;&#9;&#9;C574.751,800.154,567.409,803.545,559.27,803.545z M529.015,787.71c2.882,2.732,15.819,14.173,30.255,14.173&#10;&#9;&#9;&#9;&#9;c7.85,0,14.938-3.375,21.066-10.03l0.451-0.489l10.981,6.34v-19.985l-10.981,6.339l-0.451-0.489&#10;&#9;&#9;&#9;&#9;c-6.128-6.655-13.216-10.03-21.066-10.03C544.833,773.537,531.897,784.979,529.015,787.71z" transform="matrix(0.9999999999999999, 0, 0, 0.9999999999999999, 5.4569682106375694e-12, 1.3642420526593924e-12)"/><g transform="matrix(0.9999999999999999, 0, 0, 0.9999999999999999, 5.4569682106375694e-12, 1.3642420526593924e-12)">
				<path fill="#3AB1C2" d="M697.703,706.766v-18.903c0-20.87-16.916-37.787-37.788-37.787c-20.865,0-37.786,16.917-37.786,37.787&#10;&#9;&#9;&#9;&#9;&#9;v18.903H697.703z"/>
				<path d="M698.534,707.597h-77.236v-19.734c0-21.294,17.323-38.618,38.617-38.618c21.294,0,38.619,17.324,38.619,38.618V707.597z&#10;&#9;&#9;&#9;&#9;&#9; M622.96,705.935h73.912v-18.072c0-20.378-16.578-36.956-36.957-36.956c-20.376,0-36.955,16.578-36.955,36.956V705.935z"/>
			</g><path fill="#231F20" d="M657.926,817.938c-0.285,0-0.562-0.146-0.717-0.409l-1.974-3.348c-3.837-6.491-3.837-17.055,0-23.547&#10;&#9;&#9;&#9;&#9;&#9;l1.974-3.347c3.558-6.026,3.558-15.832,0-21.858l-1.974-3.348c-3.837-6.492-3.837-17.056,0-23.548l1.973-3.346&#10;&#9;&#9;&#9;&#9;&#9;c3.559-6.028,3.559-15.835,0-21.861c-0.233-0.396-0.102-0.905,0.293-1.139c0.398-0.23,0.907-0.102,1.139,0.293&#10;&#9;&#9;&#9;&#9;&#9;c3.833,6.492,3.833,17.058,0,23.552l-1.974,3.347c-3.563,6.026-3.563,15.83,0,21.857l1.974,3.348&#10;&#9;&#9;&#9;&#9;&#9;c3.833,6.491,3.833,17.056,0,23.548l-1.974,3.347c-3.562,6.026-3.562,15.831,0,21.857l1.974,3.349&#10;&#9;&#9;&#9;&#9;&#9;c0.233,0.394,0.102,0.903-0.293,1.138C658.215,817.9,658.069,817.938,657.926,817.938z" transform="matrix(0.9999999999999999, 0, 0, 0.9999999999999999, 7.275957614183426e-12, 1.8189894035458565e-12)"/><path fill="#231F20" d="M683.716,788.541c-0.144,0-0.289-0.037-0.422-0.115c-0.396-0.233-0.526-0.743-0.293-1.139&#10;&#9;&#9;&#9;&#9;&#9;c3.558-6.025,3.558-15.831,0-21.857l-1.976-3.348c-3.836-6.492-3.836-17.056,0-23.548l1.976-3.346&#10;&#9;&#9;&#9;&#9;&#9;c3.559-6.028,3.559-15.835,0-21.861c-0.233-0.396-0.103-0.905,0.293-1.139c0.398-0.23,0.905-0.102,1.139,0.293&#10;&#9;&#9;&#9;&#9;&#9;c3.833,6.492,3.833,17.058,0,23.552l-1.976,3.347c-3.561,6.026-3.561,15.83,0,21.857l1.976,3.348&#10;&#9;&#9;&#9;&#9;&#9;c3.833,6.491,3.833,17.056,0,23.548C684.277,788.396,684,788.541,683.716,788.541z" transform="matrix(0.9999999999999999, 0, 0, 0.9999999999999999, 7.275957614183426e-12, 1.8189894035458565e-12)"/><path fill="#231F20" d="M634.144,765.839c-0.284,0-0.562-0.146-0.717-0.409l-1.976-3.348c-3.835-6.492-3.835-17.056,0-23.548&#10;&#9;&#9;&#9;&#9;&#9;l1.976-3.346c3.558-6.028,3.558-15.835,0-21.862c-0.233-0.396-0.102-0.904,0.294-1.138c0.393-0.234,0.905-0.104,1.138,0.294&#10;&#9;&#9;&#9;&#9;&#9;c3.832,6.491,3.832,17.057,0,23.55l-1.975,3.348c-3.561,6.026-3.561,15.83,0,21.857l1.975,3.348&#10;&#9;&#9;&#9;&#9;&#9;c0.233,0.396,0.103,0.904-0.293,1.139C634.433,765.801,634.287,765.839,634.144,765.839z" transform="matrix(0.9999999999999999, 0, 0, 0.9999999999999999, 7.275957614183426e-12, 1.8189894035458565e-12)"/><g transform="matrix(0.9999999999999999, 0, 0, 0.9999999999999999, 5.4569682106375694e-12, 1.3642420526593924e-12)">
				<path fill="#3AB1C2" d="M500.629,745.545c0-8.687-5.925-16.242-14.667-20.151h-27.194c-8.741,3.909-14.667,11.465-14.667,20.151&#10;&#9;&#9;&#9;&#9;&#9;c0,10.401,8.498,19.185,20.154,22.021l8.111-14.049l8.109,14.049C492.131,764.729,500.629,755.946,500.629,745.545z"/>
				<path d="M480.066,768.52l-7.701-13.341l-7.703,13.341l-0.605-0.146c-12.24-2.978-20.789-12.365-20.789-22.828&#10;&#9;&#9;&#9;&#9;&#9;c0-8.717,5.809-16.729,15.159-20.91l0.339-0.072l27.534,0.072c9.351,4.181,15.159,12.193,15.159,20.91&#10;&#9;&#9;&#9;&#9;&#9;c0,10.463-8.549,19.851-20.789,22.828L480.066,768.52z M458.946,726.225c-8.649,3.929-14.015,11.318-14.015,19.32&#10;&#9;&#9;&#9;&#9;&#9;c0,9.524,7.747,18.111,18.918,21.061l8.517-14.751l8.515,14.751c11.17-2.95,18.918-11.537,18.918-21.061&#10;&#9;&#9;&#9;&#9;&#9;c0-8.003-5.366-15.392-14.015-19.32H458.946z"/>
			</g><path d="M450.265,731.394c-1.551,0-5.122-0.299-7.877-2.804c-2.306-2.096-3.475-5.212-3.475-9.263V704.07&#10;&#9;&#9;&#9;&#9;&#9;c0-0.459,0.372-0.831,0.831-0.831s0.831,0.372,0.831,0.831v15.257c0,3.556,0.982,6.255,2.919,8.022&#10;&#9;&#9;&#9;&#9;&#9;c2.989,2.728,7.338,2.367,7.382,2.36c0.458-0.032,0.862,0.294,0.905,0.751c0.042,0.456-0.291,0.86-0.748,0.904&#10;&#9;&#9;&#9;&#9;&#9;C450.988,731.369,450.709,731.394,450.265,731.394z" transform="matrix(0.9999999999999999, 0, 0, 0.9999999999999999, 7.275957614183426e-12, 1.8189894035458565e-12)"/><path fill="#3AB1C2" d="M439.744,697.201c-1.289-4.745-1.167-10.15-0.793-14.082c-4.216,0.507-7.513,5.008-7.513,10.486&#10;&#9;&#9;&#9;&#9;&#9;c0,5.819,3.719,10.538,8.306,10.538s8.306-4.719,8.306-10.538c0-1.89-0.397-3.658-1.084-5.194&#10;&#9;&#9;&#9;&#9;&#9;C444.713,694.892,439.744,697.201,439.744,697.201z" transform="matrix(0.9999999999999999, 0, 0, 0.9999999999999999, 7.275957614183426e-12, 1.8189894035458565e-12)"/><path d="M439.744,704.975c-5.039,0-9.137-5.1-9.137-11.369c0-5.884,3.544-10.747,8.245-11.312l1.024-0.122l-0.099,1.026&#10;&#9;&#9;&#9;&#9;&#9;c-0.324,3.426-0.479,8.302,0.507,12.722c1.462-0.972,4.36-3.36,5.897-7.781l0.688-1.979l0.855,1.913&#10;&#9;&#9;&#9;&#9;&#9;c0.756,1.691,1.156,3.605,1.156,5.533C448.881,699.875,444.783,704.975,439.744,704.975z M438.028,684.163&#10;&#9;&#9;&#9;&#9;&#9;c-3.301,1.021-5.759,4.937-5.759,9.442c0,5.353,3.354,9.707,7.475,9.707c4.122,0,7.475-4.354,7.475-9.707&#10;&#9;&#9;&#9;&#9;&#9;c0-0.966-0.114-1.926-0.333-2.847c-2.542,5.169-6.599,7.107-6.791,7.196l-0.894,0.416l-0.258-0.952&#10;&#9;&#9;&#9;&#9;&#9;C437.73,692.955,437.743,687.926,438.028,684.163z" transform="matrix(0.9999999999999999, 0, 0, 0.9999999999999999, 7.275957614183426e-12, 1.8189894035458565e-12)"/><path d="M494.465,731.394c-0.444,0-0.723-0.024-0.768-0.028c-0.457-0.044-0.791-0.448-0.748-0.904&#10;&#9;&#9;&#9;&#9;&#9;c0.043-0.456,0.445-0.772,0.905-0.751c0.04,0.006,4.391,0.368,7.382-2.36c1.938-1.768,2.919-4.467,2.919-8.022V704.07&#10;&#9;&#9;&#9;&#9;&#9;c0-0.459,0.372-0.831,0.831-0.831s0.831,0.372,0.831,0.831v15.257c0,4.051-1.169,7.167-3.475,9.263&#10;&#9;&#9;&#9;&#9;&#9;C499.587,731.095,496.016,731.394,494.465,731.394z" transform="matrix(0.9999999999999999, 0, 0, 0.9999999999999999, 7.275957614183426e-12, 1.8189894035458565e-12)"/><path fill="#3AB1C2" d="M504.986,697.201c1.287-4.745,1.166-10.15,0.792-14.082c4.216,0.507,7.513,5.008,7.513,10.486&#10;&#9;&#9;&#9;&#9;&#9;c0,5.819-3.717,10.538-8.305,10.538s-8.308-4.719-8.308-10.538c0-1.89,0.399-3.658,1.084-5.194&#10;&#9;&#9;&#9;&#9;&#9;C500.017,694.892,504.986,697.201,504.986,697.201z" transform="matrix(0.9999999999999999, 0, 0, 0.9999999999999999, 7.275957614183426e-12, 1.8189894035458565e-12)"/><path d="M504.986,704.975c-5.04,0-9.139-5.1-9.139-11.369c0-1.924,0.4-3.837,1.157-5.533l0.854-1.916l0.689,1.982&#10;&#9;&#9;&#9;&#9;&#9;c1.547,4.445,4.438,6.82,5.898,7.785c0.985-4.421,0.831-9.299,0.505-12.726l-0.098-1.026l1.024,0.122&#10;&#9;&#9;&#9;&#9;&#9;c4.7,0.564,8.245,5.428,8.245,11.312C514.122,699.875,510.023,704.975,504.986,704.975z M497.844,690.759&#10;&#9;&#9;&#9;&#9;&#9;c-0.221,0.923-0.334,1.883-0.334,2.847c0,5.353,3.354,9.707,7.477,9.707c4.121,0,7.473-4.354,7.473-9.707&#10;&#9;&#9;&#9;&#9;&#9;c0-4.506-2.458-8.421-5.758-9.442c0.285,3.762,0.299,8.791-0.913,13.256l-0.258,0.952l-0.895-0.416&#10;&#9;&#9;&#9;&#9;&#9;C504.444,697.866,500.386,695.929,497.844,690.759z" transform="matrix(0.9999999999999999, 0, 0, 0.9999999999999999, 7.275957614183426e-12, 1.8189894035458565e-12)"/><path d="M464.322,726.151c-0.459,0-0.831-0.371-0.831-0.831v-8.079c0-0.459,0.372-0.831,0.831-0.831s0.831,0.372,0.831,0.831&#10;&#9;&#9;&#9;&#9;&#9;v8.079C465.153,725.78,464.781,726.151,464.322,726.151z" transform="matrix(0.9999999999999999, 0, 0, 0.9999999999999999, 7.275957614183426e-12, 1.8189894035458565e-12)"/><path d="M 468.288998 713.276001 A 3.966 3.966 0 0 1 464.322998 717.242001 A 3.966 3.966 0 0 1 460.356998 713.276001 A 3.966 3.966 0 0 1 464.322998 709.310001 A 3.966 3.966 0 0 1 468.288998 713.276001 Z" fill="#3AB1C2" transform="matrix(0.9999999999999999, 0, 0, 0.9999999999999999, 7.275957614183426e-12, 1.8189894035458565e-12)"/><path d="M464.322,718.072c-2.645,0-4.796-2.151-4.796-4.796c0-2.646,2.151-4.799,4.796-4.799c2.646,0,4.798,2.152,4.798,4.799&#10;&#9;&#9;&#9;&#9;&#9;C469.12,715.921,466.968,718.072,464.322,718.072z M464.322,710.14c-1.729,0-3.134,1.407-3.134,3.137&#10;&#9;&#9;&#9;&#9;&#9;c0,1.729,1.406,3.134,3.134,3.134c1.729,0,3.136-1.405,3.136-3.134C467.458,711.547,466.051,710.14,464.322,710.14z" transform="matrix(0.9999999999999999, 0, 0, 0.9999999999999999, 7.275957614183426e-12, 1.8189894035458565e-12)"/><path d="M480.407,726.151c-0.459,0-0.831-0.371-0.831-0.831v-8.079c0-0.459,0.372-0.831,0.831-0.831s0.831,0.372,0.831,0.831&#10;&#9;&#9;&#9;&#9;&#9;v8.079C481.238,725.78,480.866,726.151,480.407,726.151z" transform="matrix(0.9999999999999999, 0, 0, 0.9999999999999999, 7.275957614183426e-12, 1.8189894035458565e-12)"/><path d="M 484.374013 713.276001 A 3.967 3.967 0 0 1 480.407013 717.243001 A 3.967 3.967 0 0 1 476.440013 713.276001 A 3.967 3.967 0 0 1 480.407013 709.309001 A 3.967 3.967 0 0 1 484.374013 713.276001 Z" fill="#3AB1C2" transform="matrix(0.9999999999999999, 0, 0, 0.9999999999999999, 7.275957614183426e-12, 1.8189894035458565e-12)"/><path d="M480.407,718.072c-2.646,0-4.798-2.151-4.798-4.796c0-2.646,2.152-4.799,4.798-4.799s4.798,2.152,4.798,4.799&#10;&#9;&#9;&#9;&#9;&#9;C485.205,715.921,483.053,718.072,480.407,718.072z M480.407,710.14c-1.729,0-3.136,1.407-3.136,3.137&#10;&#9;&#9;&#9;&#9;&#9;c0,1.729,1.407,3.134,3.136,3.134s3.136-1.405,3.136-3.134C483.543,711.547,482.136,710.14,480.407,710.14z" transform="matrix(0.9999999999999999, 0, 0, 0.9999999999999999, 7.275957614183426e-12, 1.8189894035458565e-12)"/><path d="M 753.27701 678.419983 A 9.142 9.142 0 0 1 744.13501 687.561983 A 9.142 9.142 0 0 1 734.99301 678.419983 A 9.142 9.142 0 0 1 744.13501 669.277983 A 9.142 9.142 0 0 1 753.27701 678.419983 Z" fill="#3AB1C2" transform="matrix(0.9999999999999999, 0, 0, 0.9999999999999999, 5.4569682106375694e-12, 1.3642420526593924e-12)"/><path d="M744.136,688.394c-5.5,0-9.974-4.474-9.974-9.974c0-5.499,4.474-9.973,9.974-9.973c5.499,0,9.973,4.474,9.973,9.973&#10;&#9;&#9;&#9;&#9;C754.108,683.92,749.635,688.394,744.136,688.394z M744.136,670.109c-4.583,0-8.312,3.729-8.312,8.311&#10;&#9;&#9;&#9;&#9;c0,4.583,3.729,8.312,8.312,8.312c4.582,0,8.311-3.729,8.311-8.312C752.446,673.838,748.718,670.109,744.136,670.109z" transform="matrix(0.9999999999999999, 0, 0, 0.9999999999999999, 5.4569682106375694e-12, 1.3642420526593924e-12)"/><path d="M 776.549012 699.716003 A 4.987 4.987 0 0 1 771.562012 704.703003 A 4.987 4.987 0 0 1 766.575012 699.716003 A 4.987 4.987 0 0 1 771.562012 694.729003 A 4.987 4.987 0 0 1 776.549012 699.716003 Z" fill="#3AB1C2" transform="matrix(0.9999999999999999, 0, 0, 0.9999999999999999, 5.4569682106375694e-12, 1.3642420526593924e-12)"/><path d="M771.563,705.533c-3.208,0-5.818-2.61-5.818-5.817c0-3.208,2.61-5.818,5.818-5.818c3.207,0,5.817,2.61,5.817,5.818&#10;&#9;&#9;&#9;&#9;C777.38,702.923,774.77,705.533,771.563,705.533z M771.563,695.56c-2.292,0-4.156,1.864-4.156,4.156&#10;&#9;&#9;&#9;&#9;c0,2.291,1.864,4.155,4.156,4.155c2.291,0,4.155-1.864,4.155-4.155C775.718,697.424,773.854,695.56,771.563,695.56z" transform="matrix(0.9999999999999999, 0, 0, 0.9999999999999999, 5.4569682106375694e-12, 1.3642420526593924e-12)"/><path d="M 742.474 737.044006 A 4.987 4.987 0 0 1 737.487 742.031006 A 4.987 4.987 0 0 1 732.5 737.044006 A 4.987 4.987 0 0 1 737.487 732.057006 A 4.987 4.987 0 0 1 742.474 737.044006 Z" fill="#3AB1C2" transform="matrix(0.9999999999999999, 0, 0, 0.9999999999999999, 5.4569682106375694e-12, 1.3642420526593924e-12)"/><path d="M737.486,742.861c-3.207,0-5.817-2.61-5.817-5.817c0-3.208,2.61-5.818,5.817-5.818c3.208,0,5.818,2.61,5.818,5.818&#10;&#9;&#9;&#9;&#9;C743.305,740.251,740.694,742.861,737.486,742.861z M737.486,732.888c-2.291,0-4.155,1.864-4.155,4.156&#10;&#9;&#9;&#9;&#9;c0,2.291,1.864,4.155,4.155,4.155c2.292,0,4.156-1.864,4.156-4.155C741.643,734.752,739.778,732.888,737.486,732.888z" transform="matrix(0.9999999999999999, 0, 0, 0.9999999999999999, 5.4569682106375694e-12, 1.3642420526593924e-12)"/><path d="M 560.211988 717.315979 A 8.261 8.261 0 0 1 551.950989 725.576979 A 8.261 8.261 0 0 1 543.689989 717.315979 A 8.261 8.261 0 0 1 551.950989 709.054979 A 8.261 8.261 0 0 1 560.211988 717.315979 Z" fill="#3AB1C2" transform="matrix(0.9999999999999999, 0, 0, 0.9999999999999999, 5.4569682106375694e-12, 1.3642420526593924e-12)"/><path d="M551.95,726.408c-5.013,0-9.09-4.078-9.09-9.092s4.078-9.092,9.09-9.092c5.014,0,9.093,4.078,9.093,9.092&#10;&#9;&#9;&#9;&#9;S556.964,726.408,551.95,726.408z M551.95,709.887c-4.096,0-7.428,3.332-7.428,7.43c0,4.097,3.333,7.43,7.428,7.43&#10;&#9;&#9;&#9;&#9;c4.098,0,7.431-3.333,7.431-7.43C559.381,713.219,556.047,709.887,551.95,709.887z" transform="matrix(0.9999999999999999, 0, 0, 0.9999999999999999, 5.4569682106375694e-12, 1.3642420526593924e-12)"/><path d="M 588.236023 737.044006 A 5.612 5.612 0 0 1 582.624023 742.656006 A 5.612 5.612 0 0 1 577.012023 737.044006 A 5.612 5.612 0 0 1 582.624023 731.432006 A 5.612 5.612 0 0 1 588.236023 737.044006 Z" fill="#3AB1C2" transform="matrix(0.9999999999999999, 0, 0, 0.9999999999999999, 5.4569682106375694e-12, 1.3642420526593924e-12)"/><path d="M582.626,743.486c-3.554,0-6.444-2.891-6.444-6.442c0-3.553,2.891-6.443,6.444-6.443c3.551,0,6.441,2.891,6.441,6.443&#10;&#9;&#9;&#9;&#9;C589.067,740.596,586.177,743.486,582.626,743.486z M582.626,732.264c-2.637,0-4.782,2.144-4.782,4.78&#10;&#9;&#9;&#9;&#9;c0,2.636,2.145,4.78,4.782,4.78c2.635,0,4.779-2.145,4.779-4.78C587.405,734.407,585.261,732.264,582.626,732.264z" transform="matrix(0.9999999999999999, 0, 0, 0.9999999999999999, 5.4569682106375694e-12, 1.3642420526593924e-12)"/><path fill="#FFFFFF" d="M934.971,371.883h82.786c2.285-3.537,3.63-7.746,3.63-12.27c0-12.512-10.146-22.659-22.658-22.659&#10;&#9;&#9;&#9;&#9;c-1.317,0-2.604,0.135-3.859,0.351c-4.031-15.399-18.002-26.782-34.666-26.782c-19.813,0-35.874,16.063-35.874,35.874&#10;&#9;&#9;&#9;&#9;C924.329,356.366,928.403,365.382,934.971,371.883z" transform="matrix(0.9999999999999999, 0, 0, 0.9999999999999999, 5.4569682106375694e-12, 1.3642420526593924e-12)"/><path d="M1018.21,372.714h-83.581l-0.242-0.24c-7.022-6.951-10.889-16.211-10.889-26.078c0-20.239,16.465-36.705,36.705-36.705&#10;&#9;&#9;&#9;&#9;c16.41,0,30.807,10.931,35.271,26.675c1.138-0.164,2.208-0.244,3.254-0.244c12.952,0,23.489,10.538,23.489,23.49&#10;&#9;&#9;&#9;&#9;c0,4.513-1.302,8.912-3.763,12.721L1018.21,372.714z M935.315,371.052h81.983c2.132-3.451,3.256-7.396,3.256-11.439&#10;&#9;&#9;&#9;&#9;c0-12.036-9.791-21.828-21.826-21.828c-1.177,0-2.393,0.11-3.719,0.338l-0.752,0.129l-0.193-0.738&#10;&#9;&#9;&#9;&#9;c-4.031-15.403-17.955-26.161-33.861-26.161c-19.322,0-35.043,15.72-35.043,35.042&#10;&#9;&#9;&#9;&#9;C925.16,355.701,928.764,364.443,935.315,371.052z" transform="matrix(0.9999999999999999, 0, 0, 0.9999999999999999, 5.4569682106375694e-12, 1.3642420526593924e-12)"/><path d="M 544.196987 513.549011 A 5.798 5.798 0 0 1 538.398987 519.347011 A 5.798 5.798 0 0 1 532.600987 513.549011 A 5.798 5.798 0 0 1 538.398987 507.751011 A 5.798 5.798 0 0 1 544.196987 513.549011 Z" fill="#7B9623" transform="matrix(0.9999999999999999, 0, 0, 0.9999999999999999, 5.4569682106375694e-12, 1.3642420526593924e-12)"/><path d="M538.399,520.178c-3.656,0-6.629-2.974-6.629-6.629c0-3.656,2.974-6.63,6.629-6.63c3.655,0,6.629,2.974,6.629,6.63&#10;&#9;&#9;&#9;&#9;C545.028,517.204,542.054,520.178,538.399,520.178z M538.399,508.581c-2.739,0-4.967,2.229-4.967,4.968s2.228,4.967,4.967,4.967&#10;&#9;&#9;&#9;&#9;c2.739,0,4.967-2.228,4.967-4.967S541.138,508.581,538.399,508.581z" transform="matrix(0.9999999999999999, 0, 0, 0.9999999999999999, 5.4569682106375694e-12, 1.3642420526593924e-12)"/><path d="M 479.724002 474.94101 A 5.797 5.797 0 0 1 473.927002 480.738009 A 5.797 5.797 0 0 1 468.130002 474.94101 A 5.797 5.797 0 0 1 473.927002 469.14401 A 5.797 5.797 0 0 1 479.724002 474.94101 Z" fill="#336778" transform="matrix(0.9999999999999999, 0, 0, 0.9999999999999999, 5.4569682106375694e-12, 1.3642420526593924e-12)"/><path d="M473.927,481.57c-3.655,0-6.628-2.974-6.628-6.629c0-3.655,2.973-6.629,6.628-6.629c3.655,0,6.629,2.974,6.629,6.629&#10;&#9;&#9;&#9;&#9;C480.556,478.597,477.582,481.57,473.927,481.57z M473.927,469.974c-2.738,0-4.966,2.228-4.966,4.967&#10;&#9;&#9;&#9;&#9;c0,2.739,2.228,4.967,4.966,4.967c2.739,0,4.967-2.228,4.967-4.967C478.894,472.202,476.666,469.974,473.927,469.974z" transform="matrix(0.9999999999999999, 0, 0, 0.9999999999999999, 5.4569682106375694e-12, 1.3642420526593924e-12)"/><path d="M 435.132991 495.399994 A 5.798 5.798 0 0 1 429.334991 501.197994 A 5.798 5.798 0 0 1 423.536992 495.399994 A 5.798 5.798 0 0 1 429.334991 489.601994 A 5.798 5.798 0 0 1 435.132991 495.399994 Z" fill="#336778" transform="matrix(0.9999999999999999, 0, 0, 0.9999999999999999, 5.4569682106375694e-12, 1.3642420526593924e-12)"/><path d="M429.336,502.03c-3.655,0-6.629-2.975-6.629-6.63s2.974-6.629,6.629-6.629c3.655,0,6.628,2.974,6.628,6.629&#10;&#9;&#9;&#9;&#9;S432.991,502.03,429.336,502.03z M429.336,490.434c-2.739,0-4.967,2.228-4.967,4.967s2.228,4.967,4.967,4.967&#10;&#9;&#9;&#9;&#9;c2.738,0,4.965-2.228,4.965-4.967S432.074,490.434,429.336,490.434z" transform="matrix(0.9999999999999999, 0, 0, 0.9999999999999999, 5.4569682106375694e-12, 1.3642420526593924e-12)"/><path d="M 514.373996 460.519989 A 5.797 5.797 0 0 1 508.576996 466.316989 A 5.797 5.797 0 0 1 502.779996 460.519989 A 5.797 5.797 0 0 1 508.576996 454.722989 A 5.797 5.797 0 0 1 514.373996 460.519989 Z" fill="#336778" transform="matrix(0.9999999999999999, 0, 0, 0.9999999999999999, 5.4569682106375694e-12, 1.3642420526593924e-12)"/><path d="M508.577,467.149c-3.655,0-6.628-2.974-6.628-6.629c0-3.655,2.973-6.629,6.628-6.629c3.655,0,6.629,2.974,6.629,6.629&#10;&#9;&#9;&#9;&#9;C515.206,464.176,512.232,467.149,508.577,467.149z M508.577,455.553c-2.738,0-4.966,2.228-4.966,4.967s2.228,4.967,4.966,4.967&#10;&#9;&#9;&#9;&#9;c2.739,0,4.967-2.228,4.967-4.967S511.315,455.553,508.577,455.553z" transform="matrix(0.9999999999999999, 0, 0, 0.9999999999999999, 5.4569682106375694e-12, 1.3642420526593924e-12)"/><path d="M 860.172 482.040985 A 5.797 5.797 0 0 1 854.375 487.837985 A 5.797 5.797 0 0 1 848.578 482.040985 A 5.797 5.797 0 0 1 854.375 476.243985 A 5.797 5.797 0 0 1 860.172 482.040985 Z" fill="#336778" transform="matrix(0.9999999999999999, 0, 0, 0.9999999999999999, 5.4569682106375694e-12, 1.3642420526593924e-12)"/><path d="M854.375,488.67c-3.654,0-6.628-2.974-6.628-6.629c0-3.655,2.974-6.629,6.628-6.629c3.655,0,6.628,2.974,6.628,6.629&#10;&#9;&#9;&#9;&#9;C861.003,485.697,858.03,488.67,854.375,488.67z M854.375,477.074c-2.737,0-4.965,2.228-4.965,4.967s2.228,4.967,4.965,4.967&#10;&#9;&#9;&#9;&#9;c2.738,0,4.966-2.228,4.966-4.967S857.113,477.074,854.375,477.074z" transform="matrix(0.9999999999999999, 0, 0, 0.9999999999999999, 5.4569682106375694e-12, 1.3642420526593924e-12)"/><path d="M 604.035976 495.798004 A 5.798 5.798 0 0 1 598.237976 501.596004 A 5.798 5.798 0 0 1 592.439976 495.798004 A 5.798 5.798 0 0 1 598.237976 490.000004 A 5.798 5.798 0 0 1 604.035976 495.798004 Z" fill="#7B9623" transform="matrix(0.9999999999999999, 0, 0, 0.9999999999999999, 5.4569682106375694e-12, 1.3642420526593924e-12)"/><path d="M598.238,502.428c-3.656,0-6.629-2.974-6.629-6.63c0-3.655,2.974-6.629,6.629-6.629c3.655,0,6.629,2.974,6.629,6.629&#10;&#9;&#9;&#9;&#9;C604.868,499.454,601.894,502.428,598.238,502.428z M598.238,490.831c-2.739,0-4.967,2.228-4.967,4.967s2.228,4.968,4.967,4.968&#10;&#9;&#9;&#9;&#9;s4.967-2.229,4.967-4.968S600.978,490.831,598.238,490.831z" transform="matrix(0.9999999999999999, 0, 0, 0.9999999999999999, 5.4569682106375694e-12, 1.3642420526593924e-12)"/><path d="M 617.748989 536.521973 A 5.798 5.798 0 0 1 611.950989 542.319973 A 5.798 5.798 0 0 1 606.152989 536.521973 A 5.798 5.798 0 0 1 611.950989 530.723973 A 5.798 5.798 0 0 1 617.748989 536.521973 Z" fill="#7B9623" transform="matrix(0.9999999999999999, 0, 0, 0.9999999999999999, 5.4569682106375694e-12, 1.3642420526593924e-12)"/><path d="M611.951,543.151c-3.655,0-6.629-2.974-6.629-6.629s2.974-6.63,6.629-6.63c3.656,0,6.629,2.975,6.629,6.63&#10;&#9;&#9;&#9;&#9;S615.607,543.151,611.951,543.151z M611.951,531.555c-2.739,0-4.967,2.229-4.967,4.968s2.228,4.967,4.967,4.967&#10;&#9;&#9;&#9;&#9;s4.967-2.228,4.967-4.967S614.69,531.555,611.951,531.555z" transform="matrix(0.9999999999999999, 0, 0, 0.9999999999999999, 5.4569682106375694e-12, 1.3642420526593924e-12)"/><path d="M 563.545986 554.825989 A 5.798 5.798 0 0 1 557.747986 560.623989 A 5.798 5.798 0 0 1 551.949986 554.825989 A 5.798 5.798 0 0 1 557.747986 549.027989 A 5.798 5.798 0 0 1 563.545986 554.825989 Z" fill="#7B9623" transform="matrix(0.9999999999999999, 0, 0, 0.9999999999999999, 5.4569682106375694e-12, 1.3642420526593924e-12)"/><path d="M557.748,561.455c-3.656,0-6.629-2.974-6.629-6.629s2.974-6.63,6.629-6.63c3.655,0,6.629,2.975,6.629,6.63&#10;&#9;&#9;&#9;&#9;S561.403,561.455,557.748,561.455z M557.748,549.859c-2.739,0-4.967,2.228-4.967,4.967s2.228,4.967,4.967,4.967&#10;&#9;&#9;&#9;&#9;s4.967-2.228,4.967-4.967S560.487,549.859,557.748,549.859z" transform="matrix(0.9999999999999999, 0, 0, 0.9999999999999999, 5.4569682106375694e-12, 1.3642420526593924e-12)"/><path d="M 764.873012 542.320007 A 5.798 5.798 0 0 1 759.075012 548.118007 A 5.798 5.798 0 0 1 753.277012 542.320007 A 5.798 5.798 0 0 1 759.075012 536.522007 A 5.798 5.798 0 0 1 764.873012 542.320007 Z" fill="#7B9623" transform="matrix(0.9999999999999999, 0, 0, 0.9999999999999999, 5.4569682106375694e-12, 1.3642420526593924e-12)"/><path d="M759.076,548.95c-3.656,0-6.63-2.974-6.63-6.63c0-3.655,2.974-6.629,6.63-6.629c3.654,0,6.628,2.974,6.628,6.629&#10;&#9;&#9;&#9;&#9;C765.704,545.977,762.73,548.95,759.076,548.95z M759.076,537.354c-2.739,0-4.968,2.228-4.968,4.967s2.229,4.968,4.968,4.968&#10;&#9;&#9;&#9;&#9;c2.737,0,4.965-2.229,4.965-4.968S761.813,537.354,759.076,537.354z" transform="matrix(0.9999999999999999, 0, 0, 0.9999999999999999, 5.4569682106375694e-12, 1.3642420526593924e-12)"/><path d="M 671.511989 495.798004 A 5.798 5.798 0 0 1 665.713989 501.596004 A 5.798 5.798 0 0 1 659.915989 495.798004 A 5.798 5.798 0 0 1 665.713989 490.000004 A 5.798 5.798 0 0 1 671.511989 495.798004 Z" fill="#7B9623" transform="matrix(0.9999999999999999, 0, 0, 0.9999999999999999, 5.4569682106375694e-12, 1.3642420526593924e-12)"/><path d="M665.713,502.428c-3.655,0-6.628-2.974-6.628-6.63c0-3.655,2.973-6.629,6.628-6.629c3.655,0,6.629,2.974,6.629,6.629&#10;&#9;&#9;&#9;&#9;C672.343,499.454,669.369,502.428,665.713,502.428z M665.713,490.831c-2.738,0-4.966,2.228-4.966,4.967s2.228,4.968,4.966,4.968&#10;&#9;&#9;&#9;&#9;c2.739,0,4.967-2.229,4.967-4.968S668.453,490.831,665.713,490.831z" transform="matrix(0.9999999999999999, 0, 0, 0.9999999999999999, 5.4569682106375694e-12, 1.3642420526593924e-12)"/><path d="M 665.713992 560.624023 A 5.797 5.797 0 0 1 659.916992 566.421023 A 5.797 5.797 0 0 1 654.119992 560.624023 A 5.797 5.797 0 0 1 659.916992 554.827024 A 5.797 5.797 0 0 1 665.713992 560.624023 Z" fill="#7B9623" transform="matrix(0.9999999999999999, 0, 0, 0.9999999999999999, 5.4569682106375694e-12, 1.3642420526593924e-12)"/><path d="M659.917,567.254c-3.655,0-6.627-2.975-6.627-6.63s2.973-6.629,6.627-6.629s6.628,2.974,6.628,6.629&#10;&#9;&#9;&#9;&#9;S663.571,567.254,659.917,567.254z M659.917,555.657c-2.737,0-4.965,2.228-4.965,4.967s2.228,4.968,4.965,4.968&#10;&#9;&#9;&#9;&#9;c2.738,0,4.966-2.229,4.966-4.968S662.654,555.657,659.917,555.657z" transform="matrix(0.9999999999999999, 0, 0, 0.9999999999999999, 5.4569682106375694e-12, 1.3642420526593924e-12)"/><path d="M 702.750979 530.723999 A 5.797 5.797 0 0 1 696.953979 536.520999 A 5.797 5.797 0 0 1 691.15698 530.723999 A 5.797 5.797 0 0 1 696.953979 524.926999 A 5.797 5.797 0 0 1 702.750979 530.723999 Z" fill="#7B9623" transform="matrix(0.9999999999999999, 0, 0, 0.9999999999999999, 5.4569682106375694e-12, 1.3642420526593924e-12)"/><path d="M696.954,537.354c-3.655,0-6.629-2.974-6.629-6.63c0-3.655,2.974-6.629,6.629-6.629c3.655,0,6.628,2.974,6.628,6.629&#10;&#9;&#9;&#9;&#9;C703.582,534.38,700.609,537.354,696.954,537.354z M696.954,525.757c-2.739,0-4.967,2.228-4.967,4.967s2.228,4.968,4.967,4.968&#10;&#9;&#9;&#9;&#9;c2.738,0,4.966-2.229,4.966-4.968S699.692,525.757,696.954,525.757z" transform="matrix(0.9999999999999999, 0, 0, 0.9999999999999999, 5.4569682106375694e-12, 1.3642420526593924e-12)"/><path d="M 488.743007 554.825989 A 5.798 5.798 0 0 1 482.945007 560.623989 A 5.798 5.798 0 0 1 477.147007 554.825989 A 5.798 5.798 0 0 1 482.945007 549.027989 A 5.798 5.798 0 0 1 488.743007 554.825989 Z" fill="#7B9623" transform="matrix(0.9999999999999999, 0, 0, 0.9999999999999999, 5.4569682106375694e-12, 1.3642420526593924e-12)"/><path d="M482.945,561.455c-3.655,0-6.629-2.974-6.629-6.629s2.974-6.63,6.629-6.63c3.655,0,6.628,2.975,6.628,6.63&#10;&#9;&#9;&#9;&#9;S486.6,561.455,482.945,561.455z M482.945,549.859c-2.739,0-4.967,2.228-4.967,4.967s2.228,4.967,4.967,4.967&#10;&#9;&#9;&#9;&#9;c2.738,0,4.965-2.228,4.965-4.967S485.683,549.859,482.945,549.859z" transform="matrix(0.9999999999999999, 0, 0, 0.9999999999999999, 5.4569682106375694e-12, 1.3642420526593924e-12)"/><g transform="matrix(0.9999999999999999, 0, 0, 0.9999999999999999, 5.4569682106375694e-12, 1.3642420526593924e-12)">
				<path d="M 852.6909790039062 537.10400390625 L 860.385986328125 537.10400390625 L 840.4539794921875 502.5780029296875 L 820.52001953125 537.10400390625 L 828.2169799804688 537.10400390625 L 820.52001953125 550.4359741210938 L 828.2169799804688 550.4359741210938 L 820.52001953125 563.7639770507812 L 860.385986328125 563.7639770507812 L 852.6909790039062 550.4359741210938 L 860.385986328125 550.4359741210938 Z" fill="#C7EC3C"/>
				<path d="M861.826,564.595h-42.747l7.697-13.328h-7.697l7.697-13.332h-7.697l21.375-37.019l21.372,37.019h-7.695l7.694,13.332&#10;&#9;&#9;&#9;&#9;&#9;h-7.693L861.826,564.595z M821.959,562.933h36.987l-7.694-13.329h7.695l-7.694-13.331h7.693l-18.492-32.031l-18.495,32.031&#10;&#9;&#9;&#9;&#9;&#9;h7.697l-7.697,13.331h7.697L821.959,562.933z"/>
			</g><path d="M840.454,578.861c-0.459,0-0.831-0.372-0.831-0.831v-38.44c0-0.459,0.372-0.831,0.831-0.831&#10;&#9;&#9;&#9;&#9;&#9;c0.46,0,0.831,0.372,0.831,0.831v38.44C841.285,578.489,840.914,578.861,840.454,578.861z" transform="matrix(0.9999999999999999, 0, 0, 0.9999999999999999, 7.275957614183426e-12, 1.8189894035458565e-12)"/><path fill="#336778" d="M854.375,444.408c0,2.964-2.404,5.37-5.371,5.37h-72.072c-2.964,0-5.369-2.405-5.369-5.37l0,0&#10;&#9;&#9;&#9;&#9;c0-2.967,2.405-5.371,5.369-5.371h72.072C851.971,439.037,854.375,441.44,854.375,444.408L854.375,444.408z" transform="matrix(0.9999999999999999, 0, 0, 0.9999999999999999, 5.4569682106375694e-12, 1.3642420526593924e-12)"/><path d="M849.004,450.608h-72.072c-3.419,0-6.201-2.781-6.201-6.201c0-3.42,2.782-6.202,6.201-6.202h72.072&#10;&#9;&#9;&#9;&#9;c3.42,0,6.202,2.782,6.202,6.202C855.206,447.827,852.424,450.608,849.004,450.608z M776.932,439.868&#10;&#9;&#9;&#9;&#9;c-2.502,0-4.538,2.036-4.538,4.54c0,2.502,2.036,4.539,4.538,4.539h72.072c2.504,0,4.54-2.036,4.54-4.539&#10;&#9;&#9;&#9;&#9;c0-2.504-2.036-4.54-4.54-4.54H776.932z" transform="matrix(0.9999999999999999, 0, 0, 0.9999999999999999, 5.4569682106375694e-12, 1.3642420526593924e-12)"/><path fill="#336778" d="M960.873,501.598c0,2.965-2.404,5.37-5.371,5.37h-53.913c-2.966,0-5.371-2.405-5.371-5.37l0,0&#10;&#9;&#9;&#9;&#9;c0-2.967,2.405-5.371,5.371-5.371h53.913C958.469,496.227,960.873,498.631,960.873,501.598L960.873,501.598z" transform="matrix(0.9999999999999999, 0, 0, 0.9999999999999999, 5.4569682106375694e-12, 1.3642420526593924e-12)"/><path d="M955.502,507.799h-53.913c-3.42,0-6.202-2.781-6.202-6.201s2.782-6.202,6.202-6.202h53.913&#10;&#9;&#9;&#9;&#9;c3.42,0,6.202,2.782,6.202,6.202S958.922,507.799,955.502,507.799z M901.589,497.058c-2.504,0-4.54,2.036-4.54,4.54&#10;&#9;&#9;&#9;&#9;c0,2.503,2.036,4.539,4.54,4.539h53.913c2.504,0,4.54-2.036,4.54-4.539c0-2.504-2.036-4.54-4.54-4.54H901.589z" transform="matrix(0.9999999999999999, 0, 0, 0.9999999999999999, 5.4569682106375694e-12, 1.3642420526593924e-12)"/><path fill="#336778" d="M782.464,478.472c0,2.964-2.405,5.37-5.37,5.37h-36.036c-2.967,0-5.371-2.406-5.371-5.37l0,0&#10;&#9;&#9;&#9;&#9;c0-2.967,2.404-5.371,5.371-5.371h36.036C780.059,473.101,782.464,475.504,782.464,478.472L782.464,478.472z" transform="matrix(0.9999999999999999, 0, 0, 0.9999999999999999, 5.4569682106375694e-12, 1.3642420526593924e-12)"/><path d="M777.094,484.672h-36.036c-3.42,0-6.202-2.781-6.202-6.201c0-3.42,2.782-6.203,6.202-6.203h36.036&#10;&#9;&#9;&#9;&#9;c3.42,0,6.201,2.783,6.201,6.203C783.295,481.891,780.514,484.672,777.094,484.672z M741.058,473.932&#10;&#9;&#9;&#9;&#9;c-2.504,0-4.54,2.036-4.54,4.54c0,2.502,2.036,4.539,4.54,4.539h36.036c2.503,0,4.539-2.036,4.539-4.539&#10;&#9;&#9;&#9;&#9;c0-2.504-2.036-4.54-4.539-4.54H741.058z" transform="matrix(0.9999999999999999, 0, 0, 0.9999999999999999, 5.4569682106375694e-12, 1.3642420526593924e-12)"/><path fill="#336778" d="M446.927,523.658c0,2.964-2.406,5.369-5.372,5.369H405.52c-2.965,0-5.37-2.405-5.37-5.369l0,0&#10;&#9;&#9;&#9;&#9;c0-2.968,2.404-5.371,5.37-5.371h36.036C444.521,518.287,446.927,520.69,446.927,523.658L446.927,523.658z" transform="matrix(0.9999999999999999, 0, 0, 0.9999999999999999, 5.4569682106375694e-12, 1.3642420526593924e-12)"/><path d="M441.556,529.858H405.52c-3.419,0-6.201-2.781-6.201-6.2c0-3.42,2.781-6.202,6.201-6.202h36.036&#10;&#9;&#9;&#9;&#9;c3.42,0,6.203,2.782,6.203,6.202C447.758,527.077,444.976,529.858,441.556,529.858z M405.52,519.118&#10;&#9;&#9;&#9;&#9;c-2.502,0-4.539,2.036-4.539,4.54c0,2.502,2.037,4.538,4.539,4.538h36.036c2.504,0,4.541-2.036,4.541-4.538&#10;&#9;&#9;&#9;&#9;c0-2.504-2.037-4.54-4.541-4.54H405.52z" transform="matrix(0.9999999999999999, 0, 0, 0.9999999999999999, 5.4569682106375694e-12, 1.3642420526593924e-12)"/><g transform="matrix(0.9999999999999999, 0, 0, 0.9999999999999999, 5.4569682106375694e-12, 1.3642420526593924e-12)">
				<path d="M 904.1309814453125 535.7659912109375 L 898.3280029296875 525.7169799804688 L 903.9180297851562 525.7169799804688 L 888.1729736328125 432.85699462890625 L 872.4240112304688 525.7169799804688 L 878.0150146484375 525.7169799804688 L 872.2130126953125 535.7659912109375 Z" fill="#FFD34F"/>
				<path d="M905.571,536.597h-34.798l5.802-10.049h-5.135l16.732-98.662l16.729,98.662h-5.135L905.571,536.597z M873.653,534.935&#10;&#9;&#9;&#9;&#9;&#9;h29.038l-5.804-10.05h6.047l-14.762-87.057l-14.765,87.057h6.046L873.653,534.935z"/>
			</g><path d="M888.173,567.049c-0.459,0-0.831-0.371-0.831-0.831v-62.143c0-0.459,0.372-0.831,0.831-0.831s0.831,0.372,0.831,0.831&#10;&#9;&#9;&#9;&#9;&#9;v62.143C889.004,566.678,888.632,567.049,888.173,567.049z" transform="matrix(0.9999999999999999, 0, 0, 0.9999999999999999, 7.275957614183426e-12, 1.8189894035458565e-12)"/><g transform="matrix(0.9999999999999999, 0, 0, 0.9999999999999999, 5.4569682106375694e-12, 1.3642420526593924e-12)">
				<path d="M 650.9940185546875 568.5089721679688 L 646.552978515625 560.8189697265625 L 650.8319702148438 560.8189697265625 L 638.7839965820312 489.77398681640625 L 626.7340087890625 560.8189697265625 L 631.0120239257812 560.8189697265625 L 626.573974609375 568.5089721679688 Z" fill="#C7EC3C"/>
				<path d="M652.434,569.34h-27.299l4.438-7.689h-3.822l13.033-76.846l13.031,76.846h-3.823L652.434,569.34z M628.013,567.678&#10;&#9;&#9;&#9;&#9;&#9;h21.541l-4.441-7.689h4.735l-11.064-65.243l-11.066,65.243h4.733L628.013,567.678z"/>
			</g><path d="M638.784,592.638c-0.459,0-0.831-0.371-0.831-0.831v-47.545c0-0.459,0.372-0.831,0.831-0.831s0.831,0.372,0.831,0.831&#10;&#9;&#9;&#9;&#9;&#9;v47.545C639.615,592.267,639.243,592.638,638.784,592.638z" transform="matrix(0.9999999999999999, 0, 0, 0.9999999999999999, 7.275957614183426e-12, 1.8189894035458565e-12)"/><g transform="matrix(0.9999999999999999, 0, 0, 0.9999999999999999, 5.4569682106375694e-12, 1.3642420526593924e-12)">
				<path d="M 687.2230224609375 561.8270263671875 L 681.510986328125 551.9349975585938 L 687.0139770507812 551.9349975585938 L 671.5130004882812 460.5199890136719 L 656.010009765625 551.9349975585938 L 661.5139770507812 551.9349975585938 L 655.802001953125 561.8270263671875 Z" fill="#C7EC3C"/>
				<path d="M688.663,562.658h-34.301l5.712-9.893h-5.048l16.487-97.217l16.484,97.217h-5.046L688.663,562.658z M657.242,560.996&#10;&#9;&#9;&#9;&#9;&#9;h28.542l-5.712-9.893h5.959l-14.517-85.612l-14.52,85.612h5.96L657.242,560.996z"/>
			</g><path d="M671.513,592.638c-0.459,0-0.831-0.371-0.831-0.831V530.63c0-0.459,0.372-0.831,0.831-0.831s0.831,0.372,0.831,0.831&#10;&#9;&#9;&#9;&#9;&#9;v61.177C672.344,592.267,671.973,592.638,671.513,592.638z" transform="matrix(0.9999999999999999, 0, 0, 0.9999999999999999, 7.275957614183426e-12, 1.8189894035458565e-12)"/><g transform="matrix(0.9999999999999999, 0, 0, 0.9999999999999999, 5.4569682106375694e-12, 1.3642420526593924e-12)">
				<path d="M 595.89697265625 470.6820068359375 L 589.7420043945312 460.0220031738281 L 595.6729736328125 460.0220031738281 L 578.969970703125 361.5329895019531 L 562.2670288085938 460.0220031738281 L 568.197998046875 460.0220031738281 L 562.0430297851562 470.6820068359375 Z" fill="#C7EC3C"/>
				<path d="M597.337,471.513h-36.734l6.155-10.66h-5.475l17.687-104.291l17.687,104.291h-5.476L597.337,471.513z M563.483,469.851&#10;&#9;&#9;&#9;&#9;&#9;h30.975l-6.155-10.66h6.387l-15.719-92.688l-15.72,92.688h6.388L563.483,469.851z"/>
			</g><path d="M578.97,488.271c-0.459,0-0.831-0.372-0.831-0.832v-50.371c0-0.459,0.372-0.831,0.831-0.831s0.831,0.372,0.831,0.831&#10;&#9;&#9;&#9;&#9;&#9;v50.371C579.801,487.899,579.43,488.271,578.97,488.271z" transform="matrix(0.9999999999999999, 0, 0, 0.9999999999999999, 7.275957614183426e-12, 1.8189894035458565e-12)"/><g transform="matrix(0.9999999999999999, 0, 0, 0.9999999999999999, 5.4569682106375694e-12, 1.3642420526593924e-12)">
				<path d="M 626.573974609375 468.84100341796875 L 622.3690185546875 461.5639953613281 L 626.4180297851562 461.5639953613281 L 615.0159912109375 394.33099365234375 L 603.614013671875 461.5639953613281 L 607.6630249023438 461.5639953613281 L 603.4619750976562 468.84100341796875 Z" fill="#FFD34F"/>
				<path d="M628.013,469.672h-25.991l4.201-7.277h-3.592l12.385-73.036l12.385,73.036h-3.592L628.013,469.672z M604.901,468.01&#10;&#9;&#9;&#9;&#9;&#9;h20.232l-4.204-7.277h4.504l-10.418-61.432l-10.418,61.432h4.504L604.901,468.01z"/>
			</g><path d="M615.016,491.719c-0.459,0-0.831-0.371-0.831-0.831v-44.993c0-0.459,0.372-0.831,0.831-0.831s0.831,0.372,0.831,0.831&#10;&#9;&#9;&#9;&#9;&#9;v44.993C615.847,491.348,615.476,491.719,615.016,491.719z" transform="matrix(0.9999999999999999, 0, 0, 0.9999999999999999, 7.275957614183426e-12, 1.8189894035458565e-12)"/><g transform="matrix(0.9999999999999999, 0, 0, 0.9999999999999999, 5.4569682106375694e-12, 1.3642420526593924e-12)">
				<path d="M 527.8690185546875 513.8989868164062 L 523.4630126953125 506.2699890136719 L 527.7069702148438 506.2699890136719 L 515.7529907226562 435.7749938964844 L 503.7980041503906 506.2699890136719 L 508.0419921875 506.2699890136719 L 503.6369934082031 513.8989868164062 Z" fill="#C7EC3C"/>
				<path d="M529.309,514.73h-27.111l4.405-7.63h-3.789l12.939-76.296l12.937,76.296h-3.787L529.309,514.73z M505.077,513.068&#10;&#9;&#9;&#9;&#9;&#9;h21.352l-4.405-7.63h4.699l-10.97-64.692l-10.972,64.692h4.701L505.077,513.068z"/>
			</g><path d="M515.753,537.847c-0.459,0-0.831-0.372-0.831-0.831v-47.176c0-0.459,0.372-0.831,0.831-0.831s0.831,0.372,0.831,0.831&#10;&#9;&#9;&#9;&#9;&#9;v47.176C516.584,537.475,516.212,537.847,515.753,537.847z" transform="matrix(0.9999999999999999, 0, 0, 0.9999999999999999, 7.275957614183426e-12, 1.8189894035458565e-12)"/><g transform="matrix(0.9999999999999999, 0, 0, 0.9999999999999999, 5.4569682106375694e-12, 1.3642420526593924e-12)">
				<path d="M 935.0139770507812 532.9299926757812 L 941.093017578125 532.9299926757812 L 925.3419799804688 505.65301513671875 L 909.593994140625 532.9299926757812 L 915.6740112304688 532.9299926757812 L 909.593994140625 543.4630126953125 L 915.6740112304688 543.4630126953125 L 909.593994140625 553.9959716796875 L 941.093017578125 553.9959716796875 L 935.0139770507812 543.4630126953125 L 941.093017578125 543.4630126953125 Z" fill="#C7EC3C"/>
				<path d="M942.531,554.828h-34.378l6.081-10.534h-6.081l6.081-10.533h-6.081l17.188-29.77l17.19,29.77h-6.08l6.079,10.533h-6.079&#10;&#9;&#9;&#9;&#9;&#9;L942.531,554.828z M911.033,553.165h28.62l-6.079-10.533h6.079l-6.079-10.533h6.078l-14.311-24.783l-14.309,24.783h6.08&#10;&#9;&#9;&#9;&#9;&#9;l-6.08,10.533h6.08L911.033,553.165z"/>
			</g><path d="M925.342,566.1c-0.459,0-0.831-0.372-0.831-0.831v-30.371c0-0.46,0.372-0.831,0.831-0.831&#10;&#9;&#9;&#9;&#9;&#9;c0.46,0,0.831,0.371,0.831,0.831v30.371C926.173,565.728,925.802,566.1,925.342,566.1z" transform="matrix(0.9999999999999999, 0, 0, 0.9999999999999999, 7.275957614183426e-12, 1.8189894035458565e-12)"/><g transform="matrix(0.9999999999999999, 0, 0, 0.9999999999999999, 5.4569682106375694e-12, 1.3642420526593924e-12)">
				<path d="M 716.197998046875 559.72900390625 L 722.2769775390625 559.72900390625 L 706.5280151367188 532.4509887695312 L 690.7780151367188 559.72900390625 L 696.8599853515625 559.72900390625 L 690.7780151367188 570.2620239257812 L 696.8599853515625 570.2620239257812 L 690.7780151367188 580.7949829101562 L 722.2769775390625 580.7949829101562 L 716.197998046875 570.2620239257812 L 722.2769775390625 570.2620239257812 Z" fill="#C7EC3C"/>
				<path d="M723.716,581.626h-34.378l6.083-10.533h-6.083l6.083-10.533h-6.083l17.19-29.771l17.188,29.771h-6.08l6.079,10.533&#10;&#9;&#9;&#9;&#9;&#9;h-6.079L723.716,581.626z M692.218,579.964h28.62l-6.079-10.533h6.079l-6.079-10.533h6.078l-14.309-24.784l-14.311,24.784h6.082&#10;&#9;&#9;&#9;&#9;&#9;l-6.082,10.533h6.082L692.218,579.964z"/>
			</g><path d="M706.528,592.897c-0.46,0-0.831-0.371-0.831-0.831v-30.371c0-0.459,0.371-0.831,0.831-0.831&#10;&#9;&#9;&#9;&#9;&#9;c0.459,0,0.831,0.372,0.831,0.831v30.371C707.359,592.526,706.987,592.897,706.528,592.897z" transform="matrix(0.9999999999999999, 0, 0, 0.9999999999999999, 7.275957614183426e-12, 1.8189894035458565e-12)"/><g transform="matrix(0.9999999999999999, 0, 0, 0.9999999999999999, 5.4569682106375694e-12, 1.3642420526593924e-12)">
				<path d="M 615.0869750976562 565.9840087890625 L 619.989990234375 565.9840087890625 L 607.2899780273438 543.9840087890625 L 594.5859985351562 565.9840087890625 L 599.4879760742188 565.9840087890625 L 594.5859985351562 574.47900390625 L 599.4879760742188 574.47900390625 L 594.5859985351562 582.9749755859375 L 619.989990234375 582.9749755859375 L 615.0869750976562 574.47900390625 L 619.989990234375 574.47900390625 Z" fill="#C7EC3C"/>
				<path d="M621.429,583.806h-28.282l4.902-8.496h-4.902l4.902-8.494h-4.903l14.144-24.493l14.14,24.493h-4.903l4.902,8.494h-4.902&#10;&#9;&#9;&#9;&#9;&#9;L621.429,583.806z M596.025,582.144h22.526l-4.902-8.496h4.902l-4.902-8.494h4.901l-11.26-19.507l-11.264,19.507h4.902&#10;&#9;&#9;&#9;&#9;&#9;l-4.902,8.494h4.902L596.025,582.144z"/>
			</g><path d="M607.29,592.897c-0.459,0-0.832-0.371-0.832-0.831V567.57c0-0.46,0.372-0.831,0.832-0.831&#10;&#9;&#9;&#9;&#9;&#9;c0.459,0,0.831,0.371,0.831,0.831v24.496C608.121,592.526,607.749,592.897,607.29,592.897z" transform="matrix(0.9999999999999999, 0, 0, 0.9999999999999999, 7.275957614183426e-12, 1.8189894035458565e-12)"/><g transform="matrix(0.9999999999999999, 0, 0, 0.9999999999999999, 5.4569682106375694e-12, 1.3642420526593924e-12)">
				<path d="M 447.75201416015625 524.4240112304688 L 456.30999755859375 524.4240112304688 L 434.14300537109375 486.031005859375 L 411.97601318359375 524.4240112304688 L 420.5329895019531 524.4240112304688 L 411.97601318359375 539.2479858398438 L 420.5329895019531 539.2479858398438 L 411.97601318359375 554.0709838867188 L 456.30999755859375 554.0709838867188 L 447.75201416015625 539.2479858398438 L 456.30999755859375 539.2479858398438 Z" fill="#FFD34F"/>
				<path d="M457.75,554.902h-47.214l8.558-14.823h-8.558l8.558-14.824h-8.558l23.607-40.886l23.607,40.886h-8.558l8.558,14.824&#10;&#9;&#9;&#9;&#9;&#9;h-8.558L457.75,554.902z M413.415,553.24h41.455l-8.558-14.823h8.558l-8.558-14.824h8.558l-20.727-35.899l-20.728,35.899h8.558&#10;&#9;&#9;&#9;&#9;&#9;l-8.558,14.824h8.558L413.415,553.24z"/>
			</g><path d="M434.143,570.768c-0.459,0-0.831-0.371-0.831-0.831v-42.748c0-0.459,0.372-0.831,0.831-0.831&#10;&#9;&#9;&#9;&#9;&#9;c0.459,0,0.831,0.372,0.831,0.831v42.748C434.974,570.396,434.602,570.768,434.143,570.768z" transform="matrix(0.9999999999999999, 0, 0, 0.9999999999999999, 7.275957614183426e-12, 1.8189894035458565e-12)"/><g transform="matrix(0.9999999999999999, 0, 0, 0.9999999999999999, 5.4569682106375694e-12, 1.3642420526593924e-12)">
				<path d="M 491.63800048828125 505.28900146484375 L 497.9849853515625 505.28900146484375 L 481.54400634765625 476.8160095214844 L 465.10400390625 505.28900146484375 L 471.45098876953125 505.28900146484375 L 465.10400390625 516.2849731445312 L 471.45098876953125 516.2849731445312 L 465.10400390625 527.2780151367188 L 497.9849853515625 527.2780151367188 L 491.63800048828125 516.2849731445312 L 497.9849853515625 516.2849731445312 Z" fill="#C7EC3C"/>
				<path d="M499.425,528.109h-35.76l6.347-10.993h-6.346l6.347-10.996h-6.348l17.88-30.966l17.88,30.966h-6.348l6.347,10.996&#10;&#9;&#9;&#9;&#9;&#9;h-6.346L499.425,528.109z M466.544,526.447h30.001l-6.347-10.993h6.348l-6.347-10.996h6.346l-15-25.98l-15,25.98h6.346&#10;&#9;&#9;&#9;&#9;&#9;l-6.347,10.996h6.348L466.544,526.447z"/>
			</g><path d="M481.544,539.874c-0.459,0-0.831-0.371-0.831-0.831v-31.702c0-0.459,0.372-0.831,0.831-0.831s0.831,0.372,0.831,0.831&#10;&#9;&#9;&#9;&#9;&#9;v31.702C482.375,539.503,482.004,539.874,481.544,539.874z" transform="matrix(0.9999999999999999, 0, 0, 0.9999999999999999, 7.275957614183426e-12, 1.8189894035458565e-12)"/><path d="M894.269,294.21c-0.46,0-0.831-0.372-0.831-0.831c0-5.041-4.102-9.142-9.143-9.142s-9.143,4.101-9.143,9.142h-1.662&#10;&#9;&#9;&#9;&#9;c0-5.041-4.101-9.142-9.142-9.142s-9.143,4.101-9.143,9.142c0,0.459-0.371,0.831-0.831,0.831c-0.459,0-0.831-0.372-0.831-0.831&#10;&#9;&#9;&#9;&#9;c0-5.958,4.847-10.805,10.805-10.805c4.485,0,8.342,2.749,9.973,6.649c1.632-3.9,5.487-6.649,9.974-6.649&#10;&#9;&#9;&#9;&#9;c5.957,0,10.805,4.847,10.805,10.805C895.1,293.839,894.728,294.21,894.269,294.21z" transform="matrix(0.9999999999999999, 0, 0, 0.9999999999999999, 5.4569682106375694e-12, 1.3642420526593924e-12)"/><path d="M416.931,381.257c-0.459,0-0.831-0.372-0.831-0.831c0-5.041-4.101-9.142-9.142-9.142s-9.142,4.101-9.142,9.142h-1.663&#10;&#9;&#9;&#9;&#9;c0-5.041-4.101-9.142-9.142-9.142s-9.142,4.101-9.142,9.142c0,0.459-0.372,0.831-0.831,0.831s-0.831-0.372-0.831-0.831&#10;&#9;&#9;&#9;&#9;c0-5.957,4.847-10.804,10.804-10.804c4.486,0,8.342,2.748,9.974,6.649c1.631-3.901,5.487-6.649,9.973-6.649&#10;&#9;&#9;&#9;&#9;c5.957,0,10.804,4.847,10.804,10.804C417.762,380.885,417.391,381.257,416.931,381.257z" transform="matrix(0.9999999999999999, 0, 0, 0.9999999999999999, 5.4569682106375694e-12, 1.3642420526593924e-12)"/><path d="M546.625,242.83c-0.459,0-0.831-0.372-0.831-0.831c0-7.561-6.152-13.713-13.713-13.713s-13.713,6.152-13.713,13.713&#10;&#9;&#9;&#9;&#9;h-1.662c0-7.561-6.152-13.713-13.713-13.713c-7.562,0-13.713,6.152-13.713,13.713c0,0.459-0.372,0.831-0.831,0.831&#10;&#9;&#9;&#9;&#9;s-0.831-0.372-0.831-0.831c0-8.478,6.897-15.375,15.375-15.375c6.732,0,12.467,4.349,14.544,10.386&#10;&#9;&#9;&#9;&#9;c2.077-6.037,7.812-10.386,14.544-10.386c8.478,0,15.375,6.897,15.375,15.375C547.457,242.458,547.085,242.83,546.625,242.83z" transform="matrix(0.9999999999999999, 0, 0, 0.9999999999999999, 5.4569682106375694e-12, 1.3642420526593924e-12)"/>
</svg>