<?xml version="1.0" encoding="utf-8"?>
<svg id="master-artboard" viewBox="0 0 550 550" version="1.1" xmlns="http://www.w3.org/2000/svg" x="0px" y="0px" width="550px" height="550px" enable-background="new 0 0 1400 980"><rect id="ee-background" x="0" y="0" width="550" height="550" style="fill: white; fill-opacity: 0; pointer-events: none;"/>
<g transform="matrix(1.2027636766433716, 0, 0, 1.155358910560608, -34.69474792480469, 3.987773895263672)">
			<path fill="#FFF16F" d="M259.832,125.195c-59.492,0-107.891,48.398-107.891,107.886c0,59.495,48.399,107.896,107.891,107.896&#10;&#9;&#9;&#9;&#9;c59.495,0,107.894-48.401,107.894-107.896C367.726,173.593,319.327,125.195,259.832,125.195z"/>
			<path d="M254.957,340.462c-60.173,0-109.126-48.956-109.126-109.131c0-60.171,48.954-109.122,109.126-109.122&#10;&#9;&#9;&#9;&#9;c60.173,0,109.129,48.951,109.129,109.122C364.086,291.506,315.13,340.462,254.957,340.462z M254.957,124.68&#10;&#9;&#9;&#9;&#9;c-58.812,0-106.655,47.844-106.655,106.651c0,58.812,47.843,106.66,106.655,106.66s106.658-47.848,106.658-106.66&#10;&#9;&#9;&#9;&#9;C361.615,172.524,313.769,124.68,254.957,124.68z"/>
		</g><path d="M 259.8320007324219 61.44499969482422 L 234.84500122070312 104.72799682617188 L 284.8190002441406 104.72799682617188 Z" fill="#FFF16F" transform="matrix(1.2027636766433716, 0, 0, 1.155358910560608, -34.69474792480469, 3.987773895263672)"/><path d="M279.944,104.213H229.97c-0.444,0-0.849-0.234-1.071-0.618c-0.22-0.383-0.22-0.852,0-1.235l24.987-43.282&#10;&#9;&#9;&#9;&#9;c0.441-0.765,1.699-0.765,2.141,0l24.99,43.282c0.219,0.384,0.219,0.852,0,1.235&#10;&#9;&#9;&#9;&#9;C280.794,103.979,280.386,104.213,279.944,104.213z M232.108,101.742h45.696l-22.847-39.576L232.108,101.742z" transform="matrix(1.2027636766433716, 0, 0, 1.155358910560608, -34.69474792480469, 3.987773895263672)"/><path d="M 204.5970001220703 114.552001953125 L 158.94700622558594 94.23500061035156 L 164.1739959716797 143.9219970703125 Z" fill="#FFF16F" transform="matrix(1.2027636766433716, 0, 0, 1.155358910560608, -34.69474792480469, 3.987773895263672)"/><path d="M159.299,143.408c-0.171,0-0.342-0.034-0.504-0.106c-0.403-0.181-0.678-0.56-0.727-0.999l-5.227-49.69&#10;&#9;&#9;&#9;&#9;c-0.046-0.437,0.145-0.869,0.502-1.127c0.357-0.258,0.825-0.309,1.23-0.13l45.652,20.32c0.403,0.178,0.678,0.56,0.727,0.999&#10;&#9;&#9;&#9;&#9;c0.046,0.439-0.145,0.869-0.502,1.129l-40.428,29.367C159.811,143.328,159.555,143.408,159.299,143.408z M155.524,94.483&#10;&#9;&#9;&#9;&#9;l4.778,45.43l36.962-26.85L155.524,94.483z" transform="matrix(1.2027636766433716, 0, 0, 1.155358910560608, -34.69474792480469, 3.987773895263672)"/><path d="M 130.04100036621094 217.17999267578125 L 145.4759979248047 169.65499877929688 L 96.60199737548828 180.03900146484375 Z" fill="#FFF16F" transform="matrix(1.2027636766433716, 0, 0, 1.155358910560608, -34.69474792480469, 3.987773895263672)"/><path d="M125.166,216.666c-0.348,0-0.683-0.145-0.919-0.408L90.81,179.117c-0.294-0.329-0.393-0.79-0.255-1.209&#10;&#9;&#9;&#9;&#9;c0.135-0.419,0.485-0.733,0.917-0.825l48.872-10.387c0.434-0.092,0.881,0.053,1.175,0.381s0.393,0.789,0.256,1.209&#10;&#9;&#9;&#9;&#9;l-15.436,47.527c-0.135,0.42-0.485,0.734-0.917,0.825C125.334,216.658,125.25,216.666,125.166,216.666z M94.077,179.054&#10;&#9;&#9;&#9;&#9;l30.572,33.96l14.115-43.456L94.077,179.054z" transform="matrix(1.2027636766433716, 0, 0, 1.155358910560608, -34.69474792480469, 3.987773895263672)"/><path d="M 96.60199737548828 286.12298583984375 L 145.4759979248047 296.5150146484375 L 130.04100036621094 248.98199462890625 Z" fill="#FFF16F" transform="matrix(1.2027636766433716, 0, 0, 1.155358910560608, -34.69474792480469, 3.987773895263672)"/><path d="M140.601,296c-0.087,0-0.174-0.007-0.258-0.026l-48.872-10.392c-0.432-0.092-0.782-0.408-0.917-0.828&#10;&#9;&#9;&#9;&#9;c-0.138-0.42-0.039-0.878,0.255-1.207l33.437-37.143c0.297-0.328,0.746-0.47,1.175-0.381c0.432,0.092,0.782,0.406,0.917,0.826&#10;&#9;&#9;&#9;&#9;l15.436,47.535c0.137,0.42,0.039,0.881-0.256,1.209C141.281,295.855,140.946,296,140.601,296z M94.077,283.61l44.687,9.501&#10;&#9;&#9;&#9;&#9;l-14.115-43.463L94.077,283.61z" transform="matrix(1.2027636766433716, 0, 0, 1.155358910560608, -34.69474792480469, 3.987773895263672)"/><path d="M 158.94700622558594 371.927001953125 L 204.5970001220703 351.6099853515625 L 164.1739959716797 322.239990234375 Z" fill="#FFF16F" transform="matrix(1.2027636766433716, 0, 0, 1.155358910560608, -34.69474792480469, 3.987773895263672)"/><path d="M154.072,371.413c-0.258,0-0.512-0.08-0.729-0.236c-0.357-0.258-0.548-0.69-0.502-1.127l5.227-49.689&#10;&#9;&#9;&#9;&#9;c0.048-0.439,0.323-0.818,0.727-0.999c0.403-0.179,0.871-0.13,1.228,0.13l40.428,29.37c0.357,0.258,0.548,0.69,0.502,1.129&#10;&#9;&#9;&#9;&#9;c-0.048,0.439-0.324,0.82-0.727,0.999l-45.652,20.317C154.412,371.377,154.241,371.413,154.072,371.413z M160.303,322.749&#10;&#9;&#9;&#9;&#9;l-4.778,45.43l41.741-18.578L160.303,322.749z" transform="matrix(1.2027636766433716, 0, 0, 1.155358910560608, -34.69474792480469, 3.987773895263672)"/><path d="M 259.8320007324219 404.7170104980469 L 284.8190002441406 361.43499755859375 L 234.84500122070312 361.4410095214844 Z" fill="#FFF16F" transform="matrix(1.2027636766433716, 0, 0, 1.155358910560608, -34.69474792480469, 3.987773895263672)"/><path d="M254.957,404.203c-0.444,0-0.849-0.237-1.071-0.618l-24.987-43.275c-0.22-0.384-0.22-0.854,0-1.236&#10;&#9;&#9;&#9;&#9;c0.222-0.384,0.627-0.618,1.071-0.618l49.975-0.007c0.442,0,0.85,0.234,1.072,0.618c0.219,0.384,0.219,0.852,0,1.236&#10;&#9;&#9;&#9;&#9;l-24.99,43.282C255.807,403.966,255.396,404.203,254.957,404.203z M232.108,360.927l22.849,39.568l22.847-39.576L232.108,360.927&#10;&#9;&#9;&#9;&#9;z" transform="matrix(1.2027636766433716, 0, 0, 1.155358910560608, -34.69474792480469, 3.987773895263672)"/><path d="M 315.0669860839844 351.6099853515625 L 360.7120056152344 371.927001953125 L 355.4849853515625 322.2349853515625 Z" fill="#FFF16F" transform="matrix(1.2027636766433716, 0, 0, 1.155358910560608, -34.69474792480469, 3.987773895263672)"/><path d="M355.837,371.413c-0.171,0-0.342-0.036-0.504-0.106l-45.643-20.317c-0.403-0.181-0.68-0.56-0.726-0.999&#10;&#9;&#9;&#9;&#9;s0.147-0.871,0.504-1.129l40.417-29.377c0.357-0.258,0.823-0.309,1.229-0.128c0.403,0.179,0.678,0.56,0.727,0.999l5.225,49.694&#10;&#9;&#9;&#9;&#9;c0.046,0.439-0.147,0.869-0.504,1.127C356.349,371.333,356.093,371.413,355.837,371.413z M312.652,349.602l41.733,18.575&#10;&#9;&#9;&#9;&#9;l-4.778-45.435L312.652,349.602z" transform="matrix(1.2027636766433716, 0, 0, 1.155358910560608, -34.69474792480469, 3.987773895263672)"/><path d="M 374.1929931640625 296.5069885253906 L 423.05999755859375 286.12298583984375 L 389.6239929199219 248.98199462890625 Z" fill="#FFF16F" transform="matrix(1.2027636766433716, 0, 0, 1.155358910560608, -34.69474792480469, 3.987773895263672)"/><path d="M369.318,295.993c-0.348,0-0.681-0.145-0.917-0.408c-0.297-0.328-0.396-0.789-0.258-1.209l15.428-47.525&#10;&#9;&#9;&#9;&#9;c0.138-0.42,0.487-0.736,0.919-0.828c0.432-0.089,0.881,0.053,1.175,0.381l33.438,37.143c0.294,0.328,0.391,0.787,0.256,1.207&#10;&#9;&#9;&#9;&#9;s-0.487,0.736-0.917,0.828l-48.869,10.384C369.49,295.983,369.403,295.993,369.318,295.993z M385.261,249.65l-14.106,43.454&#10;&#9;&#9;&#9;&#9;l44.68-9.494L385.261,249.65z" transform="matrix(1.2027636766433716, 0, 0, 1.155358910560608, -34.69474792480469, 3.987773895263672)"/><path d="M 423.05999755859375 180.03900146484375 L 374.1759948730469 169.65499877929688 L 389.63299560546875 217.1719970703125 Z" fill="#FFF16F" transform="matrix(1.2027636766433716, 0, 0, 1.155358910560608, -34.69474792480469, 3.987773895263672)"/><path d="M384.758,216.658c-0.086,0-0.173-0.01-0.258-0.026c-0.432-0.092-0.782-0.408-0.919-0.828l-15.455-47.518&#10;&#9;&#9;&#9;&#9;c-0.135-0.417-0.039-0.881,0.256-1.209c0.294-0.326,0.741-0.473,1.178-0.381l48.884,10.387c0.43,0.092,0.782,0.406,0.917,0.825&#10;&#9;&#9;&#9;&#9;c0.135,0.42,0.039,0.881-0.256,1.209l-33.429,37.133C385.439,216.511,385.104,216.658,384.758,216.658z M371.138,169.558&#10;&#9;&#9;&#9;&#9;l14.132,43.449l30.564-33.953L371.138,169.558z" transform="matrix(1.2027636766433716, 0, 0, 1.155358910560608, -34.69474792480469, 3.987773895263672)"/><path d="M 360.7120056152344 94.22799682617188 L 315.0530090332031 114.56199645996094 L 355.4849853515625 143.91200256347656 Z" fill="#FFF16F" transform="matrix(1.2027636766433716, 0, 0, 1.155358910560608, -34.69474792480469, 3.987773895263672)"/><path d="M350.61,143.398c-0.256,0-0.509-0.077-0.724-0.234l-40.435-29.353c-0.357-0.258-0.548-0.69-0.502-1.129&#10;&#9;&#9;&#9;&#9;c0.046-0.437,0.321-0.818,0.727-1l45.657-20.334c0.403-0.179,0.872-0.13,1.229,0.13c0.357,0.258,0.55,0.69,0.504,1.129&#10;&#9;&#9;&#9;&#9;l-5.225,49.685c-0.048,0.439-0.324,0.821-0.727,0.999C350.953,143.364,350.782,143.398,350.61,143.398z M312.637,113.07&#10;&#9;&#9;&#9;&#9;l36.969,26.838l4.778-45.433L312.637,113.07z" transform="matrix(1.2027636766433716, 0, 0, 1.155358910560608, -34.69474792480469, 3.987773895263672)"/>
</svg>