<?xml version="1.0" encoding="utf-8"?>
<svg id="master-artboard" viewBox="0 0 1400 980" version="1.1" xmlns="http://www.w3.org/2000/svg" x="0px" y="0px" width="1400px" height="980px" enable-background="new 0 0 1400 980">
<path fill="#FFFFFF" d="M458.675,355.824H595.29c5.357-5.174,8.702-12.421,8.702-20.46c0-14.765-11.236-26.899-25.624-28.325&#10;&#9;&#9;&#9;c-6.145-19.506-24.398-33.697-45.906-33.697c-20.609,0-39.009,13.351-45.558,32.734c-0.69-0.048-1.371-0.067-2.042-0.067&#10;&#9;&#9;&#9;c-17.535,0-31.798,14.26-31.798,31.788c0,6.11,1.759,12.062,5.092,17.224L458.675,355.824z" transform="matrix(0.9999999999999999, 0, 0, 0.9999999999999999, 3.637978807091713e-12, 9.094947017729282e-13)"/><path d="M590.415,355.309H453.8c-0.42,0-0.811-0.212-1.038-0.564l-0.519-0.806c-3.46-5.357-5.29-11.545-5.29-17.892&#10;&#9;&#9;&#9;c0-18.211,14.817-33.024,33.033-33.024c0.391,0,0.784,0.005,1.182,0.022c7.03-19.591,25.564-32.688,46.417-32.688&#10;&#9;&#9;&#9;c21.382,0,40.102,13.548,46.835,33.793c14.839,1.875,25.931,14.4,25.931,29.464c0,8.111-3.224,15.693-9.079,21.35&#10;&#9;&#9;&#9;C591.042,355.186,590.735,355.309,590.415,355.309z M454.474,352.838h135.434c5.147-5.145,7.974-11.956,7.974-19.224&#10;&#9;&#9;&#9;c0-14.06-10.537-25.709-24.512-27.097c-0.493-0.048-0.908-0.386-1.057-0.856c-6.186-19.637-24.16-32.833-44.726-32.833&#10;&#9;&#9;&#9;c-20.105,0-37.944,12.819-44.385,31.894c-0.181,0.533-0.705,0.876-1.257,0.837c-0.661-0.046-1.315-0.065-1.957-0.065&#10;&#9;&#9;&#9;c-16.852,0-30.562,13.705-30.562,30.552c0,5.869,1.691,11.593,4.894,16.553L454.474,352.838z" transform="matrix(0.9999999999999999, 0, 0, 0.9999999999999999, 3.637978807091713e-12, 9.094947017729282e-13)"/><path fill="#FFFFFF" d="M1118.844,208.943c-4.232,0-8.379,0.651-12.365,1.933c-10.416-15.479-28.127-24.992-46.83-24.992&#10;&#9;&#9;&#9;c-23.718,0-44.678,14.651-52.866,36.699c-18.213,0.253-32.958,15.153-32.958,33.432c0,4.208,0.782,8.326,2.544,12.8l0.771,1.984&#10;&#9;&#9;&#9;h173.922l2.092-0.463l0.891-1.605c3.312-5.946,5.061-12.701,5.061-19.533C1159.104,227,1141.044,208.943,1118.844,208.943z" transform="matrix(0.9999999999999999, 0, 0, 0.9999999999999999, 3.637978807091713e-12, 9.094947017729282e-13)"/><path d="M1146.187,270.284H972.265c-0.507,0-0.965-0.312-1.148-0.787l-0.777-1.983c-1.79-4.552-2.625-8.763-2.625-13.249&#10;&#9;&#9;&#9;c0-18.57,14.875-33.938,33.332-34.646c8.543-22,30.026-36.721,53.728-36.721c18.608,0,36.66,9.472,47.336,24.78&#10;&#9;&#9;&#9;c3.838-1.144,7.824-1.721,11.859-1.721c22.883,0,41.496,18.611,41.496,41.489c0,7.044-1.805,14.004-5.217,20.134l-0.889,1.603&#10;&#9;&#9;&#9;c-0.171,0.309-0.468,0.531-0.813,0.608l-2.096,0.463C1146.365,270.274,1146.275,270.284,1146.187,270.284z M973.109,267.813&#10;&#9;&#9;&#9;h172.941l1.417-0.314l0.62-1.117c3.21-5.766,4.906-12.311,4.906-18.935c0-21.514-17.506-39.018-39.025-39.018&#10;&#9;&#9;&#9;c-4.088,0-8.121,0.63-11.984,1.875c-0.526,0.169-1.098-0.032-1.404-0.488c-10.15-15.078-27.702-24.447-45.807-24.447&#10;&#9;&#9;&#9;c-22.953,0-43.734,14.424-51.708,35.893c-0.178,0.478-0.63,0.799-1.141,0.806c-17.502,0.244-31.74,14.687-31.74,32.196&#10;&#9;&#9;&#9;c0,4.165,0.782,8.089,2.457,12.349L973.109,267.813z" transform="matrix(0.9999999999999999, 0, 0, 0.9999999999999999, 3.637978807091713e-12, 9.094947017729282e-13)"/><path fill="#FFFFFF" d="M1261.426,449.288h-70.473c-9.811-20.836-30.64-34.148-53.841-34.148&#10;&#9;&#9;&#9;c-22.272,0-42.706,12.527-52.885,32.162c-21.546-1.969-41.113,12.752-46.067,33.161c-9.767,1.73-18.273,8.367-22.215,17.571&#10;&#9;&#9;&#9;l-3.296,7.691h257.877l1.813-0.403c11.046-4.477,18.177-15.049,18.177-26.954C1290.516,462.336,1277.465,449.288,1261.426,449.288&#10;&#9;&#9;&#9;z" transform="matrix(0.9999999999999999, 0, 0, 0.9999999999999999, 3.637978807091713e-12, 9.094947017729282e-13)"/><path d="M1265.651,505.211h-257.877c-0.415,0-0.802-0.21-1.03-0.556c-0.229-0.347-0.269-0.784-0.104-1.168l3.297-7.688&#10;&#9;&#9;&#9;c3.953-9.235,12.467-16.128,22.343-18.153c5.369-20.477,25.165-34.92,46.361-33.393c10.613-19.82,31.073-32.099,53.597-32.099&#10;&#9;&#9;&#9;c23.516,0,44.371,13.063,54.618,34.148h69.695c16.722,0,30.325,13.599,30.325,30.316c0,12.404-7.438,23.436-18.946,28.098&#10;&#9;&#9;&#9;l-2.011,0.466C1265.832,505.201,1265.74,505.211,1265.651,505.211z M1009.649,502.739h255.867l1.682-0.374&#10;&#9;&#9;&#9;c10.375-4.223,17.207-14.354,17.207-25.747c0-15.354-12.496-27.845-27.854-27.845h-70.473c-0.479,0-0.915-0.277-1.117-0.709&#10;&#9;&#9;&#9;c-9.711-20.626-29.913-33.438-52.724-33.438c-21.872,0-41.716,12.069-51.789,31.496c-0.229,0.444-0.715,0.712-1.207,0.662&#10;&#9;&#9;&#9;c-1.245-0.114-2.507-0.171-3.753-0.171c-19.202,0-36.447,13.623-41.004,32.394c-0.113,0.476-0.502,0.84-0.984,0.924&#10;&#9;&#9;&#9;c-9.4,1.665-17.56,8.121-21.293,16.842L1009.649,502.739z" transform="matrix(0.9999999999999999, 0, 0, 0.9999999999999999, 3.637978807091713e-12, 9.094947017729282e-13)"/><path fill="#FFFFFF" d="M208.023,536.526c0.632,0,1.274,0.021,1.926,0.067c6.173-18.281,23.527-30.868,42.961-30.868&#10;&#9;&#9;&#9;c25.021,0,45.38,20.358,45.38,45.384c0,12.199-4.783,23.648-13.737,32.51l-0.76,0.765h-99.901l-1.055-1.636&#10;&#9;&#9;&#9;c-3.142-4.868-4.802-10.479-4.802-16.241C178.036,549.978,191.485,536.526,208.023,536.526z" transform="matrix(0.9999999999999999, 0, 0, 0.9999999999999999, 3.637978807091713e-12, 9.094947017729282e-13)"/><path d="M278.919,583.87h-99.901c-0.42,0-0.811-0.213-1.04-0.567l-1.052-1.637c-3.272-5.063-5-10.912-5-16.909&#10;&#9;&#9;&#9;c0-17.212,14.007-31.217,31.223-31.217c0.353,0,0.707,0.008,1.064,0.02c6.653-18.474,24.145-30.82,43.823-30.82&#10;&#9;&#9;&#9;c25.702,0,46.615,20.914,46.615,46.62c0,12.532-5.01,24.389-14.103,33.388l-0.753,0.758&#10;&#9;&#9;&#9;C279.563,583.739,279.247,583.87,278.919,583.87z M179.691,581.398h98.713l0.398-0.398c8.628-8.54,13.377-19.774,13.377-31.641&#10;&#9;&#9;&#9;c0-24.343-19.803-44.148-44.144-44.148c-18.93,0-35.724,12.068-41.791,30.028c-0.178,0.531-0.688,0.871-1.257,0.838&#10;&#9;&#9;&#9;c-0.623-0.044-1.235-0.065-1.839-0.065c-15.855,0-28.752,12.896-28.752,28.745c0,5.521,1.593,10.905,4.604,15.57L179.691,581.398z&#10;&#9;&#9;&#9;" transform="matrix(0.9999999999999999, 0, 0, 0.9999999999999999, 3.637978807091713e-12, 9.094947017729282e-13)"/><path fill="#8BA621" d="M1226.516,771.646H183.225c-12.742,0-23.105,10.365-23.105,23.11c0,12.744,10.363,23.109,23.105,23.109&#10;&#9;&#9;&#9;h55.501c11.54,0,20.928,9.388,20.928,20.931c0,12.742,10.368,23.104,23.11,23.104h101.542c11.54,0,20.933,9.393,20.933,20.934&#10;&#9;&#9;&#9;c0,12.744,10.368,23.106,23.11,23.106h352.664c12.74,0,23.104-10.362,23.104-23.106c0-11.541,9.393-20.934,20.934-20.934h301.922&#10;&#9;&#9;&#9;c12.745,0,23.114-10.362,23.114-23.104c0-11.543,9.386-20.931,20.929-20.931h55.501c12.742,0,23.107-10.365,23.107-23.109&#10;&#9;&#9;&#9;C1249.623,782.011,1239.258,771.646,1226.516,771.646z" transform="matrix(0.9999999999999999, 0, 0, 0.9999999999999999, 3.637978807091713e-12, 9.094947017729282e-13)"/><path d="M776.137,905.427H423.473c-13.425,0-24.345-10.921-24.345-24.343c0-10.86-8.837-19.697-19.697-19.697H277.888&#10;&#9;&#9;&#9;c-13.423,0-24.345-10.918-24.345-24.341c0-10.86-8.833-19.695-19.692-19.695H178.35c-13.42,0-24.34-10.92-24.34-24.345&#10;&#9;&#9;&#9;c0-13.426,10.92-24.346,24.34-24.346h1043.291c13.422,0,24.343,10.92,24.343,24.346c0,13.425-10.921,24.345-24.343,24.345h-55.501&#10;&#9;&#9;&#9;c-10.857,0-19.692,8.835-19.692,19.695c0,13.423-10.923,24.341-24.351,24.341H820.175c-10.86,0-19.697,8.837-19.697,19.697&#10;&#9;&#9;&#9;C800.478,894.506,789.557,905.427,776.137,905.427z M178.35,771.132c-12.057,0-21.869,9.813-21.869,21.874&#10;&#9;&#9;&#9;s9.813,21.874,21.869,21.874h55.501c12.221,0,22.164,9.945,22.164,22.166c0,12.06,9.813,21.869,21.874,21.869H379.43&#10;&#9;&#9;&#9;c12.223,0,22.168,9.945,22.168,22.169c0,12.059,9.813,21.871,21.874,21.871h352.664c12.057,0,21.869-9.813,21.869-21.871&#10;&#9;&#9;&#9;c0-12.224,9.945-22.169,22.169-22.169h301.922c12.066,0,21.879-9.81,21.879-21.869c0-12.221,9.942-22.166,22.164-22.166h55.501&#10;&#9;&#9;&#9;c12.059,0,21.871-9.813,21.871-21.874s-9.813-21.874-21.871-21.874H178.35z" transform="matrix(0.9999999999999999, 0, 0, 0.9999999999999999, 3.637978807091713e-12, 9.094947017729282e-13)"/><g transform="matrix(0.9999999999999999, 0, 0, 0.9999999999999999, 3.637978807091713e-12, 9.094947017729282e-13)">
			<path d="M 455.7359924316406 406.0660095214844 L 466.8559875488281 449.31201171875 L 396.8399963378906 473.614013671875 L 590.4169921875 429.4630126953125 Z" fill="#2D5C69"/>
			<path d="M391.965,473.1c-0.541,0-1.033-0.355-1.188-0.896c-0.181-0.63,0.162-1.293,0.782-1.508l68.943-23.928l-10.838-42.146&#10;&#9;&#9;&#9;&#9;c-0.104-0.406,0.005-0.835,0.29-1.144c0.282-0.309,0.702-0.451,1.12-0.381l134.681,23.399c0.579,0.099,1.006,0.596,1.023,1.185&#10;&#9;&#9;&#9;&#9;c0.014,0.586-0.386,1.105-0.96,1.236L392.24,473.068C392.148,473.09,392.054,473.1,391.965,473.1z M452.533,405.86l10.646,41.395&#10;&#9;&#9;&#9;&#9;c0.159,0.623-0.186,1.262-0.792,1.475l-48.782,16.932l165.663-37.785L452.533,405.86z"/>
		</g><path d="M 613.8939819335938 244.81900024414062 L 566.9400024414062 233.08099365234375 L 573.1190185546875 339.3429870605469 L 608.3330078125 351.6990051269531 Z" fill="#2D5C69" transform="matrix(0.9999999999999999, 0, 0, 0.9999999999999999, 5.4569682106375694e-12, 1.3642420526593924e-12)"/><path d="M603.458,351.185c-0.138,0-0.275-0.021-0.408-0.07l-35.215-12.356c-0.473-0.164-0.796-0.596-0.826-1.093l-6.178-106.262&#10;&#9;&#9;&#9;&#9;c-0.024-0.393,0.142-0.772,0.444-1.023c0.304-0.251,0.707-0.34,1.088-0.249l46.953,11.738c0.574,0.145,0.965,0.673,0.934,1.264&#10;&#9;&#9;&#9;&#9;l-5.561,106.88c-0.019,0.389-0.222,0.744-0.545,0.96C603.941,351.115,603.7,351.185,603.458,351.185z M569.429,336.7&#10;&#9;&#9;&#9;&#9;l32.881,11.538l5.423-104.216l-44.337-11.084L569.429,336.7z" transform="matrix(0.9999999999999999, 0, 0, 0.9999999999999999, 5.4569682106375694e-12, 1.3642420526593924e-12)"/><path d="M 733.7470092773438 200.1320037841797 L 713.5650024414062 116.93399810791016 L 659.6110229492188 116.93399810791016 L 692.9719848632812 193.54200744628906 L 659.6110229492188 226.9029998779297 Z" fill="#2D5C69" transform="matrix(0.9999999999999999, 0, 0, 0.9999999999999999, 5.4569682106375694e-12, 1.3642420526593924e-12)"/><path d="M654.736,226.389c-0.413,0-0.811-0.208-1.042-0.572c-0.311-0.49-0.239-1.129,0.169-1.537l32.766-32.765l-33.024-75.835&#10;&#9;&#9;&#9;&#9;c-0.167-0.384-0.13-0.823,0.099-1.173c0.227-0.348,0.615-0.558,1.033-0.558h53.955c0.571,0,1.066,0.391,1.201,0.944&#10;&#9;&#9;&#9;&#9;l20.181,83.198c0.149,0.613-0.187,1.24-0.78,1.455l-74.136,26.769C655.019,226.364,654.876,226.389,654.736,226.389z&#10;&#9;&#9;&#9;&#9; M656.621,116.419l32.608,74.877c0.203,0.468,0.102,1.009-0.258,1.368l-29.445,29.445l67.884-24.514l-19.69-81.176H656.621z" transform="matrix(0.9999999999999999, 0, 0, 0.9999999999999999, 5.4569682106375694e-12, 1.3642420526593924e-12)"/><path d="M 686.7940063476562 457.96099853515625 L 696.6790161132812 423.364013671875 L 742.39599609375 404.8299865722656 L 765.8729858398438 331.92999267578125 L 754.7529907226562 245.51400756835938 L 809.5880126953125 181.39100646972656 L 795.9959716796875 122.08200073242188 L 711.5070190429688 87.27899932861328 L 659.6110229492188 116.93399810791016 L 713.5650024414062 116.93399810791016 L 733.7470092773438 200.1320037841797 L 659.6110229492188 226.9029998779297 L 628.7210083007812 217.01800537109375 L 566.9400024414062 233.08099365234375 L 613.8939819335938 244.81900024414062 L 608.3330078125 351.6990051269531 L 573.1190185546875 339.3429870605469 L 455.7359924316406 406.0660095214844 L 590.4169921875 429.4630126953125 L 396.8399963378906 473.614013671875 L 377.89300537109375 547.75 L 324.3489990234375 612.0020141601562 L 396.8399963378906 727.9409790039062 L 386.1679992675781 771.64599609375 L 633.0070190429688 771.64599609375 L 686.7940063476562 520.97802734375 Z" fill="#326273" transform="matrix(0.9999999999999999, 0, 0, 0.9999999999999999, 5.4569682106375694e-12, 1.3642420526593924e-12)"/><path d="M628.132,771.132H381.293c-0.379,0-0.738-0.174-0.973-0.474c-0.234-0.297-0.318-0.688-0.229-1.055l10.551-43.2&#10;&#9;&#9;&#9;&#9;l-72.215-115.497c-0.282-0.452-0.241-1.036,0.099-1.446l53.365-64.036l18.877-73.866c0.116-0.449,0.471-0.796,0.922-0.898&#10;&#9;&#9;&#9;&#9;l187.578-42.783l-128.617-22.342c-0.516-0.092-0.917-0.493-1.009-1.006c-0.086-0.514,0.155-1.028,0.608-1.286l117.382-66.723&#10;&#9;&#9;&#9;&#9;c0.312-0.178,0.683-0.21,1.019-0.091l33.658,11.811l5.423-104.216l-45.966-11.492c-0.547-0.137-0.934-0.627-0.936-1.192&#10;&#9;&#9;&#9;&#9;c-0.002-0.567,0.379-1.062,0.924-1.202l61.78-16.063c0.227-0.061,0.466-0.053,0.688,0.017l30.49,9.757l72.698-26.251&#10;&#9;&#9;&#9;&#9;l-19.69-81.176h-52.984c-0.56,0-1.05-0.376-1.194-0.919c-0.145-0.541,0.096-1.11,0.582-1.39l51.896-29.655&#10;&#9;&#9;&#9;&#9;c0.331-0.188,0.731-0.212,1.083-0.067l84.49,34.799c0.371,0.155,0.644,0.478,0.733,0.869l13.592,59.309&#10;&#9;&#9;&#9;&#9;c0.087,0.381-0.01,0.782-0.266,1.079l-54.478,63.706l11.05,85.872c0.022,0.179,0.008,0.362-0.05,0.536l-23.477,72.9&#10;&#9;&#9;&#9;&#9;c-0.111,0.348-0.372,0.627-0.71,0.768l-45.16,18.307l-9.673,33.852v62.842c0,0.087-0.009,0.174-0.026,0.258l-53.788,250.669&#10;&#9;&#9;&#9;&#9;C629.218,770.724,628.713,771.132,628.132,771.132z M382.867,768.66h244.266l53.551-249.563v-62.885&#10;&#9;&#9;&#9;&#9;c0-0.114,0.017-0.229,0.048-0.34l9.885-34.597c0.104-0.364,0.37-0.661,0.724-0.806l45.182-18.316l23.214-72.088l-11.085-86.142&#10;&#9;&#9;&#9;&#9;c-0.043-0.345,0.061-0.695,0.287-0.961l54.43-63.65l-13.31-58.081l-83.338-34.327l-47.332,27.045h49.302&#10;&#9;&#9;&#9;&#9;c0.571,0,1.066,0.391,1.201,0.944l20.181,83.198c0.149,0.613-0.187,1.24-0.78,1.455l-74.136,26.769&#10;&#9;&#9;&#9;&#9;c-0.258,0.094-0.536,0.099-0.796,0.017l-30.55-9.776l-56.744,14.752l42.252,10.563c0.574,0.145,0.965,0.673,0.934,1.264&#10;&#9;&#9;&#9;&#9;l-5.561,106.88c-0.019,0.389-0.222,0.744-0.545,0.96c-0.323,0.217-0.729,0.271-1.095,0.14l-34.684-12.17l-113.9,64.744&#10;&#9;&#9;&#9;&#9;l131.288,22.808c0.579,0.099,1.006,0.596,1.023,1.182c0.014,0.589-0.386,1.108-0.96,1.238l-192.842,43.985l-18.761,73.405&#10;&#9;&#9;&#9;&#9;c-0.046,0.179-0.13,0.343-0.249,0.485l-52.969,63.563l72.015,115.182c0.176,0.28,0.231,0.623,0.152,0.946L382.867,768.66z" transform="matrix(0.9999999999999999, 0, 0, 0.9999999999999999, 5.4569682106375694e-12, 1.3642420526593924e-12)"/><path d="M 324.3489990234375 612.0020141601562 L 337.5299987792969 690.8060302734375 L 243.625 771.64599609375 L 386.1679992675781 771.64599609375 L 396.8399963378906 727.9409790039062 Z" fill="#3C798C" transform="matrix(0.9999999999999999, 0, 0, 0.9999999999999999, 5.4569682106375694e-12, 1.3642420526593924e-12)"/><path d="M381.293,771.132H238.75c-0.517,0-0.98-0.321-1.158-0.807c-0.181-0.484-0.041-1.027,0.352-1.365l93.377-80.387&#10;&#9;&#9;&#9;&#9;l-13.063-78.116c-0.099-0.584,0.229-1.151,0.779-1.361c0.553-0.207,1.173,0,1.487,0.502l72.488,115.939&#10;&#9;&#9;&#9;&#9;c0.176,0.282,0.231,0.623,0.154,0.946l-10.672,43.704C382.36,770.743,381.863,771.132,381.293,771.132z M242.078,768.66h138.245&#10;&#9;&#9;&#9;&#9;l10.319-42.257l-68.924-110.234l12.154,72.682c0.072,0.427-0.085,0.858-0.411,1.142L242.078,768.66z" transform="matrix(0.9999999999999999, 0, 0, 0.9999999999999999, 5.4569682106375694e-12, 1.3642420526593924e-12)"/><path d="M 907.968017578125 422.1289978027344 L 956.625 371.67401123046875 L 902.2579956054688 380.2439880371094 L 892.3729858398438 343.2550048828125 L 762.166015625 460.4330139160156 Z" fill="#366D7D" transform="matrix(0.9999999999999999, 0, 0, 0.9999999999999999, 5.4569682106375694e-12, 1.3642420526593924e-12)"/><path d="M757.291,459.918c-0.446,0-0.866-0.241-1.088-0.649c-0.271-0.502-0.162-1.125,0.261-1.506L886.67,340.588&#10;&#9;&#9;&#9;&#9;c0.321-0.29,0.768-0.391,1.181-0.268c0.412,0.123,0.731,0.451,0.842,0.866l9.596,35.915l53.269-8.398&#10;&#9;&#9;&#9;&#9;c0.523-0.082,1.045,0.178,1.289,0.651c0.246,0.471,0.161,1.045-0.205,1.429l-48.657,50.452c-0.159,0.164-0.357,0.28-0.577,0.338&#10;&#9;&#9;&#9;&#9;l-145.801,38.304C757.501,459.906,757.396,459.918,757.291,459.918z M886.825,343.773l-124.92,112.421l140.538-36.923&#10;&#9;&#9;&#9;&#9;l45.86-47.551l-50.728,7.995c-0.628,0.099-1.224-0.292-1.388-0.903L886.825,343.773z" transform="matrix(0.9999999999999999, 0, 0, 0.9999999999999999, 5.4569682106375694e-12, 1.3642420526593924e-12)"/><path d="M 1008.052001953125 559.281005859375 L 1085.89501953125 544.4539794921875 L 1058.7679443359375 424.218994140625 L 1008.052001953125 518.5059814453125 Z" fill="#366D7D" transform="matrix(0.9999999999999999, 0, 0, 0.9999999999999999, 5.4569682106375694e-12, 1.3642420526593924e-12)"/><path d="M1003.177,558.767c-0.284,0-0.564-0.099-0.789-0.282c-0.282-0.236-0.446-0.584-0.446-0.953v-40.775&#10;&#9;&#9;&#9;&#9;c0-0.205,0.051-0.405,0.147-0.586l50.713-94.288c0.246-0.454,0.748-0.712,1.257-0.637c0.51,0.07,0.925,0.449,1.038,0.951&#10;&#9;&#9;&#9;&#9;l27.128,120.235c0.074,0.328,0.012,0.671-0.172,0.951s-0.473,0.473-0.801,0.536l-77.844,14.827&#10;&#9;&#9;&#9;&#9;C1003.331,558.76,1003.254,558.767,1003.177,558.767z M1004.412,517.067v38.97l75.121-14.309l-26.119-115.763L1004.412,517.067z" transform="matrix(0.9999999999999999, 0, 0, 0.9999999999999999, 5.4569682106375694e-12, 1.3642420526593924e-12)"/><path d="M 1156.323974609375 680.3699951171875 L 1155.5400390625 674.8699951171875 L 1046.9739990234375 735.9730224609375 L 1083.06201171875 771.64599609375 L 1216.8690185546875 771.64599609375 Z" fill="#366D7D" transform="matrix(0.9999999999999999, 0, 0, 0.9999999999999999, 5.4569682106375694e-12, 1.3642420526593924e-12)"/><path d="M1211.994,771.132h-133.808c-0.325,0-0.637-0.128-0.868-0.357l-36.089-35.673c-0.274-0.273-0.407-0.659-0.354-1.043&#10;&#9;&#9;&#9;&#9;c0.051-0.384,0.28-0.722,0.618-0.912l108.563-61.103c0.357-0.2,0.787-0.212,1.154-0.031c0.366,0.181,0.617,0.528,0.676,0.934&#10;&#9;&#9;&#9;&#9;l0.748,5.223l60.39,91.044c0.251,0.379,0.273,0.866,0.059,1.268C1212.868,770.881,1212.45,771.132,1211.994,771.132z&#10;&#9;&#9;&#9;&#9; M1078.693,768.66h130.999l-59.273-89.356c-0.102-0.152-0.166-0.326-0.192-0.507l-0.531-3.715l-105.563,59.413L1078.693,768.66z" transform="matrix(0.9999999999999999, 0, 0, 0.9999999999999999, 5.4569682106375694e-12, 1.3642420526593924e-12)"/><path d="M 1155.5400390625 674.8699951171875 L 1140.261962890625 567.9310302734375 L 1085.89501953125 544.4539794921875 L 1008.052001953125 559.281005859375 L 1008.052001953125 518.5059814453125 L 1058.7679443359375 424.218994140625 L 1008.52099609375 418.62701416015625 L 956.625 371.67401123046875 L 907.968017578125 422.1289978027344 L 762.166015625 460.4330139160156 L 892.3729858398438 343.2550048828125 L 910.906982421875 333.3699951171875 L 929.2479858398438 291.3590087890625 L 845.4199829101562 192.51100158691406 L 809.5880126953125 181.39100646972656 L 754.7529907226562 245.51400756835938 L 765.8729858398438 331.92999267578125 L 742.39599609375 404.8299865722656 L 696.6790161132812 423.364013671875 L 686.7940063476562 457.96099853515625 L 686.7940063476562 520.97802734375 L 633.0070190429688 771.64599609375 L 1083.06201171875 771.64599609375 L 1046.9739990234375 735.9730224609375 Z" fill="#3C798C" transform="matrix(0.9999999999999999, 0, 0, 0.9999999999999999, 5.4569682106375694e-12, 1.3642420526593924e-12)"/><path d="M1078.187,771.132H628.132c-0.374,0-0.727-0.169-0.96-0.459c-0.234-0.292-0.326-0.671-0.249-1.035l53.761-250.541&#10;&#9;&#9;&#9;&#9;v-62.885c0-0.114,0.017-0.229,0.048-0.34l9.885-34.597c0.104-0.364,0.372-0.661,0.724-0.806l45.182-18.316l23.214-72.088&#10;&#9;&#9;&#9;&#9;l-11.085-86.142c-0.043-0.345,0.061-0.695,0.287-0.961l54.835-64.124c0.321-0.374,0.835-0.523,1.306-0.376l35.833,11.121&#10;&#9;&#9;&#9;&#9;c0.225,0.07,0.422,0.2,0.576,0.381l83.828,98.849c0.305,0.359,0.377,0.861,0.188,1.293l-18.341,42.01&#10;&#9;&#9;&#9;&#9;c-0.111,0.253-0.304,0.466-0.55,0.596l-18.401,9.813L761.905,456.194l140.538-36.923l48.416-50.206&#10;&#9;&#9;&#9;&#9;c0.463-0.48,1.226-0.504,1.718-0.058l51.602,46.688l49.849,5.546c0.408,0.046,0.768,0.29,0.958,0.654&#10;&#9;&#9;&#9;&#9;c0.19,0.364,0.188,0.798-0.007,1.161l-50.566,94.012v38.97l76.376-14.547c0.244-0.046,0.495-0.02,0.722,0.079l54.367,23.477&#10;&#9;&#9;&#9;&#9;c0.396,0.172,0.673,0.533,0.733,0.958l15.276,106.942c0.072,0.505-0.172,0.999-0.615,1.251l-107.139,60.298l34.923,34.522&#10;&#9;&#9;&#9;&#9;c0.354,0.353,0.466,0.886,0.272,1.349C1079.141,770.83,1078.687,771.132,1078.187,771.132z M629.66,768.66h445.52l-33.95-33.559&#10;&#9;&#9;&#9;&#9;c-0.274-0.273-0.407-0.659-0.354-1.043c0.051-0.384,0.28-0.722,0.618-0.912l107.828-60.688l-15.06-105.42l-53.384-23.052&#10;&#9;&#9;&#9;&#9;l-77.47,14.758c-0.364,0.067-0.735-0.029-1.021-0.261c-0.282-0.236-0.446-0.584-0.446-0.953v-40.775&#10;&#9;&#9;&#9;&#9;c0-0.205,0.051-0.405,0.147-0.586l49.849-92.676l-48.43-5.389c-0.256-0.029-0.5-0.138-0.69-0.312l-51.01-46.152l-47.824,49.593&#10;&#9;&#9;&#9;&#9;c-0.159,0.164-0.357,0.28-0.577,0.338l-145.801,38.304c-0.553,0.145-1.13-0.106-1.402-0.608&#10;&#9;&#9;&#9;&#9;c-0.271-0.502-0.162-1.125,0.261-1.506L886.67,340.588c0.075-0.067,0.16-0.125,0.246-0.174l18.155-9.682l17.861-40.91&#10;&#9;&#9;&#9;&#9;l-83.097-97.987l-34.713-10.773l-53.949,63.088l11.05,85.872c0.022,0.179,0.008,0.362-0.05,0.536l-23.477,72.9&#10;&#9;&#9;&#9;&#9;c-0.111,0.348-0.372,0.627-0.712,0.768l-45.158,18.307l-9.673,33.852v62.842c0,0.087-0.009,0.174-0.026,0.258L629.66,768.66z" transform="matrix(0.9999999999999999, 0, 0, 0.9999999999999999, 5.4569682106375694e-12, 1.3642420526593924e-12)"/><g transform="matrix(0.9999999999999999, 0, 0, 0.9999999999999999, 3.637978807091713e-12, 9.094947017729282e-13)">
			<path d="M 1036.89794921875 713.5460205078125 L 1031.1619873046875 712.4959716796875 L 1017.9349975585938 653.9310302734375 L 1014.8259887695312 652.344970703125 L 894.27197265625 719.0869750976562 Z" fill="#8D8F91"/>
			<path d="M889.397,718.572c-0.553,0-1.04-0.366-1.189-0.902c-0.155-0.553,0.089-1.137,0.591-1.414l120.554-66.742&#10;&#9;&#9;&#9;&#9;c0.359-0.198,0.796-0.205,1.158-0.02l3.111,1.586c0.328,0.166,0.562,0.471,0.644,0.827l13.047,57.77l4.933,0.903&#10;&#9;&#9;&#9;&#9;c0.618,0.113,1.055,0.675,1.009,1.303c-0.044,0.63-0.555,1.125-1.183,1.148l-142.626,5.541&#10;&#9;&#9;&#9;&#9;C889.429,718.572,889.412,718.572,889.397,718.572z M1009.976,651.994l-115.433,63.907l130.496-5.071l-13.056-57.813&#10;&#9;&#9;&#9;&#9;L1009.976,651.994z"/>
		</g><path d="M 788.406005859375 536.93701171875 L 786.9970092773438 536.2169799804688 L 560.2219848632812 636.0599975585938 L 620.89501953125 659.7769775390625 Z" fill="#8D8F91" transform="matrix(0.9999999999999999, 0, 0, 0.9999999999999999, 5.4569682106375694e-12, 1.3642420526593924e-12)"/><path d="M616.02,659.264c-0.149,0-0.304-0.029-0.449-0.085l-60.675-23.718c-0.463-0.181-0.772-0.625-0.784-1.125&#10;&#9;&#9;&#9;&#9;c-0.01-0.499,0.28-0.955,0.738-1.155l226.772-99.843c0.341-0.149,0.731-0.141,1.06,0.029l1.409,0.719&#10;&#9;&#9;&#9;&#9;c0.384,0.193,0.638,0.574,0.671,1.001c0.036,0.428-0.154,0.843-0.499,1.096L616.751,659.024&#10;&#9;&#9;&#9;&#9;C616.536,659.182,616.28,659.264,616.02,659.264z M558.569,634.242l57.27,22.389l162.432-119.118L558.569,634.242z" transform="matrix(0.9999999999999999, 0, 0, 0.9999999999999999, 5.4569682106375694e-12, 1.3642420526593924e-12)"/><path d="M 1151.58203125 771.64599609375 L 1074.5789794921875 720.4359741210938 L 1036.89794921875 713.5460205078125 L 894.27197265625 719.0869750976562 L 1014.8259887695312 652.344970703125 L 788.406005859375 536.93701171875 L 620.89501953125 659.7769775390625 L 560.2219848632812 636.0599975585938 L 554.9970092773438 638.3590087890625 L 430.2760009765625 648.2059936523438 L 475.9179992675781 705.0819702148438 L 437.0360107421875 771.64599609375 L 470.97601318359375 771.64599609375 Z" fill="#A7A9AC" transform="matrix(0.9999999999999999, 0, 0, 0.9999999999999999, 5.4569682106375694e-12, 1.3642420526593924e-12)"/><path d="M1146.707,771.132H432.161c-0.444,0-0.852-0.237-1.072-0.62c-0.222-0.384-0.22-0.857,0.005-1.238l38.454-65.83&#10;&#9;&#9;&#9;&#9;l-45.109-56.213c-0.287-0.357-0.353-0.845-0.171-1.265s0.582-0.704,1.038-0.743l124.511-9.827l5.034-2.215&#10;&#9;&#9;&#9;&#9;c0.302-0.136,0.642-0.14,0.949-0.021l60.04,23.472L782.8,534.189c0.376-0.275,0.876-0.316,1.291-0.104l226.42,115.408&#10;&#9;&#9;&#9;&#9;c0.408,0.208,0.669,0.623,0.676,1.079s-0.236,0.881-0.637,1.103l-116.007,64.226l137.432-5.341&#10;&#9;&#9;&#9;&#9;c0.092-0.005,0.182,0.005,0.271,0.02l37.681,6.89c0.164,0.031,0.324,0.094,0.464,0.188l77.003,51.21&#10;&#9;&#9;&#9;&#9;c0.454,0.302,0.656,0.863,0.497,1.385C1147.733,770.774,1147.253,771.132,1146.707,771.132z M434.313,768.66h708.306&#10;&#9;&#9;&#9;&#9;l-73.388-48.804l-37.298-6.82l-142.488,5.536c-0.574,0.054-1.083-0.353-1.237-0.902c-0.155-0.553,0.089-1.137,0.591-1.414&#10;&#9;&#9;&#9;&#9;l118.52-65.615L783.646,536.635l-166.896,122.39c-0.34,0.249-0.785,0.309-1.18,0.154l-60.197-23.532l-4.754,2.095&#10;&#9;&#9;&#9;&#9;c-0.128,0.056-0.263,0.09-0.4,0.102l-122.393,9.66l44.18,55.055c0.321,0.4,0.359,0.956,0.104,1.397L434.313,768.66z" transform="matrix(0.9999999999999999, 0, 0, 0.9999999999999999, 5.4569682106375694e-12, 1.3642420526593924e-12)"/><path d="M 430.2760009765625 648.2059936523438 L 429.7860107421875 648.2440185546875 L 412.2460021972656 704.260009765625 L 317.5480041503906 771.64599609375 L 437.0360107421875 771.64599609375 L 475.9179992675781 705.0819702148438 Z" fill="#8D8F91" transform="matrix(0.9999999999999999, 0, 0, 0.9999999999999999, 5.4569682106375694e-12, 1.3642420526593924e-12)"/><path d="M432.161,771.132H312.673c-0.538,0-1.014-0.348-1.178-0.859s0.024-1.071,0.461-1.383l94.36-67.146l17.417-55.619&#10;&#9;&#9;&#9;&#9;c0.149-0.482,0.579-0.822,1.081-0.863l0.49-0.039c0.413-0.026,0.804,0.141,1.06,0.459l45.643,56.876&#10;&#9;&#9;&#9;&#9;c0.321,0.4,0.359,0.956,0.104,1.397l-38.883,66.563C433.005,770.897,432.6,771.132,432.161,771.132z M316.54,768.66h114.912&#10;&#9;&#9;&#9;&#9;l38.096-65.217l-44.004-54.835l-16.994,54.271c-0.08,0.258-0.241,0.48-0.461,0.637L316.54,768.66z" transform="matrix(0.9999999999999999, 0, 0, 0.9999999999999999, 5.4569682106375694e-12, 1.3642420526593924e-12)"/><g transform="matrix(0.9999999999999999, 0, 0, 0.9999999999999999, 3.637978807091713e-12, 9.094947017729282e-13)">
			<path d="M 1003.02197265625 747.3109741210938 L 1000.02099609375 745.239013671875 L 996.31298828125 718.0570068359375 L 993.458984375 716.6300048828125 L 944.6229858398438 741.7379760742188 Z" fill="#DB776A"/>
			<path d="M998.147,746.796c-0.038,0-0.077-0.003-0.118-0.005l-58.396-5.572c-0.546-0.053-0.994-0.459-1.096-0.997&#10;&#9;&#9;&#9;&#9;c-0.104-0.538,0.159-1.083,0.646-1.332l48.835-25.107c0.353-0.181,0.768-0.184,1.12-0.008l2.853,1.427&#10;&#9;&#9;&#9;&#9;c0.364,0.184,0.618,0.533,0.671,0.938l3.635,26.643l2.553,1.762c0.464,0.319,0.652,0.91,0.459,1.438&#10;&#9;&#9;&#9;&#9;C999.13,746.475,998.662,746.796,998.147,746.796z M944.065,739.158l49.924,4.764c-0.033-0.085-0.056-0.174-0.067-0.266&#10;&#9;&#9;&#9;&#9;l-3.62-26.537l-1.708-0.854L944.065,739.158z"/>
		</g><path d="M 916.89501953125 715.9180297851562 L 876.7520141601562 703.9840087890625 L 905.083984375 733.1129760742188 Z" fill="#DB776A" transform="matrix(0.9999999999999999, 0, 0, 0.9999999999999999, 5.4569682106375694e-12, 1.3642420526593924e-12)"/><path d="M900.209,732.599c-0.331,0-0.651-0.136-0.883-0.374l-28.335-29.129c-0.394-0.402-0.464-1.021-0.171-1.501&#10;&#9;&#9;&#9;&#9;c0.292-0.48,0.866-0.707,1.409-0.545l40.143,11.934c0.379,0.113,0.681,0.4,0.813,0.772c0.13,0.374,0.077,0.786-0.147,1.112&#10;&#9;&#9;&#9;&#9;l-11.811,17.194c-0.208,0.305-0.543,0.5-0.912,0.531C900.281,732.599,900.245,732.599,900.209,732.599z M876.066,704.769&#10;&#9;&#9;&#9;&#9;l23.979,24.651l9.996-14.552L876.066,704.769z" transform="matrix(0.9999999999999999, 0, 0, 0.9999999999999999, 5.4569682106375694e-12, 1.3642420526593924e-12)"/><path d="M 1003.02197265625 747.3109741210938 L 944.6229858398438 741.7379760742188 L 993.458984375 716.6300048828125 L 949.3599853515625 694.5800170898438 L 917.85302734375 716.2030029296875 L 916.89501953125 715.9180297851562 L 905.083984375 733.1129760742188 L 876.7520141601562 703.9840087890625 L 872.135009765625 702.6110229492188 L 839.18701171875 728.1480102539062 L 834.448974609375 771.64599609375 L 1038.323974609375 771.64599609375 Z" fill="#FF8C7D" transform="matrix(0.9999999999999999, 0, 0, 0.9999999999999999, 5.4569682106375694e-12, 1.3642420526593924e-12)"/><path d="M1033.449,771.132H829.574c-0.35,0-0.686-0.149-0.92-0.41c-0.233-0.264-0.347-0.611-0.309-0.958l4.737-43.498&#10;&#9;&#9;&#9;&#9;c0.036-0.333,0.205-0.637,0.471-0.844l32.948-25.538c0.316-0.243,0.729-0.321,1.11-0.207l4.617,1.373&#10;&#9;&#9;&#9;&#9;c0.202,0.06,0.386,0.171,0.533,0.323l27.282,28.047l10.956-15.951c0.305-0.442,0.856-0.64,1.371-0.485l0.394,0.115l31.021-21.287&#10;&#9;&#9;&#9;&#9;c0.369-0.256,0.849-0.29,1.252-0.087l44.101,22.05c0.415,0.208,0.681,0.633,0.681,1.099c0.005,0.466-0.256,0.893-0.671,1.105&#10;&#9;&#9;&#9;&#9;l-45.083,23.18l54.2,5.171c0.208,0.022,0.41,0.095,0.584,0.215l35.302,24.336c0.444,0.307,0.638,0.866,0.478,1.383&#10;&#9;&#9;&#9;&#9;C1034.468,770.779,1033.99,771.132,1033.449,771.132z M830.952,768.66h198.527l-31.769-21.9l-58.078-5.541&#10;&#9;&#9;&#9;&#9;c-0.546-0.053-0.994-0.459-1.096-0.997c-0.104-0.538,0.159-1.083,0.646-1.332l46.668-23.995l-41.267-20.634l-30.907,21.211&#10;&#9;&#9;&#9;&#9;c-0.31,0.21-0.695,0.27-1.053,0.166l-0.096-0.028l-11.302,16.453c-0.208,0.305-0.543,0.5-0.912,0.531&#10;&#9;&#9;&#9;&#9;c-0.367,0.031-0.734-0.104-0.989-0.369l-28.11-28.896l-3.7-1.101l-32.031,24.825L830.952,768.66z" transform="matrix(0.9999999999999999, 0, 0, 0.9999999999999999, 5.4569682106375694e-12, 1.3642420526593924e-12)"/><g transform="matrix(0.9999999999999999, 0, 0, 0.9999999999999999, 3.637978807091713e-12, 9.094947017729282e-13)">
			<path d="M 567.47900390625 690.7760009765625 L 566.9400024414062 690.8060302734375 L 534.8150024414062 738.4429931640625 L 507.6310119628906 742.9739990234375 L 507.6099853515625 743.0339965820312 L 610.18701171875 738.8560180664062 Z" fill="#E6D964"/>
			<path d="M502.735,742.52c-0.398,0-0.772-0.19-1.004-0.514c-0.242-0.338-0.299-0.772-0.152-1.161l0.022-0.061&#10;&#9;&#9;&#9;&#9;c0.157-0.41,0.519-0.707,0.953-0.779l26.66-4.442l31.827-47.197c0.217-0.321,0.572-0.523,0.96-0.543l0.536-0.029&#10;&#9;&#9;&#9;&#9;c0.372-0.019,0.741,0.131,0.992,0.413l42.708,48.08c0.316,0.357,0.4,0.864,0.212,1.303c-0.186,0.439-0.608,0.734-1.086,0.753&#10;&#9;&#9;&#9;&#9;l-102.579,4.176C502.766,742.52,502.749,742.52,502.735,742.52z M562.442,690.706l-31.477,46.678&#10;&#9;&#9;&#9;&#9;c-0.19,0.282-0.487,0.474-0.823,0.528l-8.087,1.347l80.602-3.281L562.442,690.706z"/>
		</g><path d="M 713.7969970703125 614.4559936523438 L 685.14599609375 684.489990234375 L 683.8040161132812 684.56298828125 L 726.333984375 685.31298828125 Z" fill="#E6D964" transform="matrix(0.9999999999999999, 0, 0, 0.9999999999999999, 5.4569682106375694e-12, 1.3642420526593924e-12)"/><path d="M721.459,684.799c-0.008,0-0.015,0-0.021,0l-42.527-0.751c-0.666-0.012-1.202-0.548-1.216-1.214&#10;&#9;&#9;&#9;&#9;c-0.01-0.664,0.506-1.219,1.17-1.255l0.56-0.031l28.354-69.31c0.21-0.51,0.734-0.818,1.277-0.761&#10;&#9;&#9;&#9;&#9;c0.548,0.058,0.989,0.471,1.086,1.014l12.534,70.856c0.065,0.362-0.036,0.736-0.277,1.019&#10;&#9;&#9;&#9;&#9;C722.163,684.642,721.82,684.799,721.459,684.799z M682.062,681.632l37.918,0.669l-11.531-65.176L682.062,681.632z" transform="matrix(0.9999999999999999, 0, 0, 0.9999999999999999, 5.4569682106375694e-12, 1.3642420526593924e-12)"/><path d="M 836.135986328125 727.7630004882812 L 800.469970703125 723.260009765625 L 787.291015625 653.9310302734375 L 758.458984375 653.9310302734375 L 714.801025390625 612.0020141601562 L 713.7969970703125 614.4559936523438 L 726.333984375 685.31298828125 L 683.8040161132812 684.56298828125 L 567.47900390625 690.7760009765625 L 610.18701171875 738.8560180664062 L 507.6099853515625 743.0339965820312 L 496.92401123046875 771.64599609375 L 827.0280151367188 771.64599609375 L 817.1500244140625 751.4180297851562 Z" fill="#FFF16F" transform="matrix(0.9999999999999999, 0, 0, 0.9999999999999999, 5.4569682106375694e-12, 1.3642420526593924e-12)"/><path d="M822.153,771.132H492.049c-0.406,0-0.785-0.198-1.014-0.531c-0.232-0.333-0.285-0.758-0.145-1.137l10.686-28.612&#10;&#9;&#9;&#9;&#9;c0.174-0.466,0.611-0.781,1.108-0.801l99.973-4.073l-40.978-46.131c-0.314-0.354-0.398-0.858-0.215-1.296&#10;&#9;&#9;&#9;&#9;c0.181-0.438,0.598-0.733,1.074-0.758l116.326-6.214l41.115,0.722l-12.274-69.38c-0.038-0.229-0.014-0.466,0.072-0.683&#10;&#9;&#9;&#9;&#9;l1.004-2.455c0.157-0.379,0.488-0.656,0.889-0.74c0.403-0.082,0.818,0.033,1.112,0.318l43.3,41.583h28.334&#10;&#9;&#9;&#9;&#9;c0.594,0,1.103,0.423,1.214,1.007l13.01,68.445l34.776,4.391c0.443,0.055,0.82,0.347,0.989,0.762&#10;&#9;&#9;&#9;&#9;c0.169,0.416,0.099,0.889-0.182,1.238l-18.493,23.042l9.533,19.523c0.188,0.384,0.164,0.835-0.061,1.197&#10;&#9;&#9;&#9;&#9;C822.977,770.912,822.58,771.132,822.153,771.132z M493.83,768.66h326.347l-9.011-18.449c-0.21-0.43-0.152-0.943,0.146-1.318&#10;&#9;&#9;&#9;&#9;l17.601-21.932l-33.473-4.226c-0.53-0.067-0.958-0.468-1.06-0.994l-12.988-68.325h-27.809c-0.318,0-0.625-0.123-0.856-0.345&#10;&#9;&#9;&#9;&#9;l-42.346-40.669l-0.181,0.441l12.474,70.504c0.065,0.362-0.036,0.736-0.277,1.019c-0.239,0.28-0.591,0.43-0.96,0.433&#10;&#9;&#9;&#9;&#9;l-42.527-0.751l-113.681,6.077l41.007,46.161c0.316,0.357,0.4,0.864,0.212,1.303c-0.186,0.439-0.608,0.734-1.086,0.753&#10;&#9;&#9;&#9;&#9;l-101.759,4.144L493.83,768.66z" transform="matrix(0.9999999999999999, 0, 0, 0.9999999999999999, 5.4569682106375694e-12, 1.3642420526593924e-12)"/><path d="M 849.0709838867188 751.2130126953125 L 839.18701171875 728.1480102539062 L 836.135986328125 727.7630004882812 L 817.1500244140625 751.4180297851562 L 827.0280151367188 771.64599609375 L 872.135009765625 771.64599609375 Z" fill="#E6D964" transform="matrix(0.9999999999999999, 0, 0, 0.9999999999999999, 5.4569682106375694e-12, 1.3642420526593924e-12)"/><path d="M867.26,771.132h-45.106c-0.471,0-0.902-0.269-1.11-0.693l-9.877-20.228c-0.21-0.43-0.152-0.943,0.146-1.318&#10;&#9;&#9;&#9;&#9;l18.983-23.654c0.271-0.333,0.688-0.507,1.12-0.451l3.05,0.386c0.435,0.056,0.809,0.335,0.979,0.738l9.779,22.811l22.854,20.25&#10;&#9;&#9;&#9;&#9;c0.387,0.34,0.52,0.883,0.338,1.361C868.232,770.815,867.774,771.132,867.26,771.132z M822.926,768.66h41.076l-20.626-18.273&#10;&#9;&#9;&#9;&#9;c-0.136-0.12-0.244-0.271-0.313-0.437l-9.607-22.415l-1.663-0.21l-18.062,22.504L822.926,768.66z" transform="matrix(0.9999999999999999, 0, 0, 0.9999999999999999, 5.4569682106375694e-12, 1.3642420526593924e-12)"/><path fill="#789600" d="M610.187,811.345c0,7.505-6.083,13.592-13.591,13.592H345.767c-7.508,0-13.592-6.087-13.592-13.592l0,0&#10;&#9;&#9;&#9;c0-7.506,6.084-13.592,13.592-13.592h250.828C604.103,797.753,610.187,803.839,610.187,811.345L610.187,811.345z" transform="matrix(0.9999999999999999, 0, 0, 0.9999999999999999, 3.637978807091713e-12, 9.094947017729282e-13)"/><path d="M591.72,824.422H340.892c-8.176,0-14.827-6.651-14.827-14.827c0-8.177,6.651-14.827,14.827-14.827H591.72&#10;&#9;&#9;&#9;c8.176,0,14.827,6.65,14.827,14.827C606.547,817.771,599.896,824.422,591.72,824.422z M340.892,797.238&#10;&#9;&#9;&#9;c-6.813,0-12.356,5.544-12.356,12.356s5.543,12.356,12.356,12.356H591.72c6.813,0,12.356-5.544,12.356-12.356&#10;&#9;&#9;&#9;s-5.543-12.356-12.356-12.356H340.892z" transform="matrix(0.9999999999999999, 0, 0, 0.9999999999999999, 3.637978807091713e-12, 9.094947017729282e-13)"/><path fill="#789600" d="M741.161,868.598c0,7.049-5.717,12.767-12.769,12.767H547.994c-7.051,0-12.766-5.718-12.766-12.767l0,0&#10;&#9;&#9;&#9;c0-7.052,5.715-12.769,12.766-12.769h180.399C735.444,855.829,741.161,861.546,741.161,868.598L741.161,868.598z" transform="matrix(0.9999999999999999, 0, 0, 0.9999999999999999, 3.637978807091713e-12, 9.094947017729282e-13)"/><path d="M723.518,880.85H543.119c-7.72,0-14.002-6.282-14.002-14.002c0-7.723,6.282-14.005,14.002-14.005h180.399&#10;&#9;&#9;&#9;c7.723,0,14.004,6.282,14.004,14.005C737.521,874.567,731.24,880.85,723.518,880.85z M543.119,855.314&#10;&#9;&#9;&#9;c-6.356,0-11.531,5.174-11.531,11.533s5.174,11.53,11.531,11.53h180.399c6.358,0,11.533-5.171,11.533-11.53&#10;&#9;&#9;&#9;s-5.175-11.533-11.533-11.533H543.119z" transform="matrix(0.9999999999999999, 0, 0, 0.9999999999999999, 3.637978807091713e-12, 9.094947017729282e-13)"/><path fill="#789600" d="M1077.246,812.58c0,6.822-4.887,12.356-10.913,12.356H835.272c-6.028,0-10.913-5.534-10.913-12.356l0,0&#10;&#9;&#9;&#9;c0-6.822,4.885-12.355,10.913-12.355h231.061C1072.359,800.225,1077.246,805.758,1077.246,812.58L1077.246,812.58z" transform="matrix(0.9999999999999999, 0, 0, 0.9999999999999999, 3.637978807091713e-12, 9.094947017729282e-13)"/><path d="M1061.458,824.422H830.397c-6.699,0-12.148-6.099-12.148-13.592s5.449-13.592,12.148-13.592h231.061&#10;&#9;&#9;&#9;c6.699,0,12.148,6.099,12.148,13.592S1068.157,824.422,1061.458,824.422z M830.397,799.71c-5.339,0-9.678,4.988-9.678,11.12&#10;&#9;&#9;&#9;c0,6.133,4.339,11.121,9.678,11.121h231.061c5.336,0,9.677-4.988,9.677-11.121c0-6.132-4.341-11.12-9.677-11.12H830.397z" transform="matrix(0.9999999999999999, 0, 0, 0.9999999999999999, 3.637978807091713e-12, 9.094947017729282e-13)"/><path fill="#789600" d="M689.061,811.345c0,6.824-5.531,12.356-12.356,12.356l0,0c-6.825,0-12.356-5.532-12.356-12.356l0,0&#10;&#9;&#9;&#9;c0-6.825,5.531-12.356,12.356-12.356l0,0C683.529,798.988,689.061,804.52,689.061,811.345L689.061,811.345z" transform="matrix(0.9999999999999999, 0, 0, 0.9999999999999999, 3.637978807091713e-12, 9.094947017729282e-13)"/><path d="M671.829,823.187c-7.496,0-13.591-6.099-13.591-13.592s6.096-13.592,13.591-13.592c7.496,0,13.592,6.099,13.592,13.592&#10;&#9;&#9;&#9;S679.325,823.187,671.829,823.187z M671.829,798.475c-6.132,0-11.12,4.988-11.12,11.12s4.988,11.12,11.12,11.12&#10;&#9;&#9;&#9;c6.132,0,11.121-4.988,11.121-11.12S677.961,798.475,671.829,798.475z" transform="matrix(0.9999999999999999, 0, 0, 0.9999999999999999, 3.637978807091713e-12, 9.094947017729282e-13)"/><path d="M 0 768.659973 H 1399.991943 V 771.131973 H 0 V 768.659973 Z" transform="matrix(0.9999999999999999, 0, 0, 0.9999999999999999, 3.637978807091713e-12, 9.094947017729282e-13)"/><path d="M 277.454002 703.984009 A 33.831001 33.831001 0 0 1 243.623001 737.81501 A 33.831001 33.831001 0 0 1 209.792 703.984009 A 33.831001 33.831001 0 0 1 243.623001 670.153008 A 33.831001 33.831001 0 0 1 277.454002 703.984009 Z" fill="#789600" transform="matrix(0.9999999999999999, 0, 0, 0.9999999999999999, 3.637978807091713e-12, 9.094947017729282e-13)"/><path d="M238.75,737.3c-19.338,0-35.067-15.73-35.067-35.065s15.729-35.065,35.067-35.065c19.335,0,35.065,15.73,35.065,35.065&#10;&#9;&#9;&#9;S258.085,737.3,238.75,737.3z M238.75,669.641c-17.974,0-32.596,14.619-32.596,32.594s14.622,32.594,32.596,32.594&#10;&#9;&#9;&#9;c17.972,0,32.594-14.619,32.594-32.594S256.721,669.641,238.75,669.641z" transform="matrix(0.9999999999999999, 0, 0, 0.9999999999999999, 3.637978807091713e-12, 9.094947017729282e-13)"/><path d="M238.75,771.132c-0.683,0-1.236-0.553-1.236-1.236v-67.661c0-0.683,0.553-1.235,1.236-1.235&#10;&#9;&#9;&#9;c0.681,0,1.235,0.553,1.235,1.235v67.661C239.985,770.579,239.43,771.132,238.75,771.132z" transform="matrix(0.9999999999999999, 0, 0, 0.9999999999999999, 3.637978807091713e-12, 9.094947017729282e-13)"/><g transform="matrix(0.9999999999999999, 0, 0, 0.9999999999999999, 3.637978807091713e-12, 9.094947017729282e-13)">
			<path d="M 337.840994 726.539001 A 22.552999 22.552999 0 0 1 315.287994 749.092001 A 22.552999 22.552999 0 0 1 292.734995 726.539001 A 22.552999 22.552999 0 0 1 315.287994 703.986002 A 22.552999 22.552999 0 0 1 337.840994 726.539001 Z" fill="#FFF16F"/>
			<path d="M310.415,748.577c-13.119,0-23.79-10.672-23.79-23.788c0-13.119,10.671-23.79,23.79-23.79&#10;&#9;&#9;&#9;&#9;c13.116,0,23.788,10.671,23.788,23.79C334.203,737.905,323.531,748.577,310.415,748.577z M310.415,703.47&#10;&#9;&#9;&#9;&#9;c-11.755,0-21.319,9.564-21.319,21.319c0,11.753,9.564,21.316,21.319,21.316c11.753,0,21.317-9.563,21.317-21.316&#10;&#9;&#9;&#9;&#9;C331.731,713.034,322.167,703.47,310.415,703.47z"/>
		</g><path d="M310.415,771.132c-0.683,0-1.235-0.553-1.235-1.236v-45.106c0-0.683,0.552-1.235,1.235-1.235&#10;&#9;&#9;&#9;&#9;c0.681,0,1.236,0.553,1.236,1.235v45.106C311.65,770.579,311.095,771.132,310.415,771.132z" transform="matrix(0.9999999999999999, 0, 0, 0.9999999999999999, 5.4569682106375694e-12, 1.3642420526593924e-12)"/><g transform="matrix(0.9999999999999999, 0, 0, 0.9999999999999999, 3.637978807091713e-12, 9.094947017729282e-13)">
			<path d="M 1216.872017 726.539001 A 22.555 22.555 0 0 1 1194.317017 749.094002 A 22.555 22.555 0 0 1 1171.762016 726.539001 A 22.555 22.555 0 0 1 1194.317017 703.984001 A 22.555 22.555 0 0 1 1216.872017 726.539001 Z" fill="#FFF16F"/>
			<path d="M1189.442,748.577c-13.119,0-23.79-10.672-23.79-23.788c0-13.119,10.671-23.79,23.79-23.79&#10;&#9;&#9;&#9;&#9;c13.118,0,23.79,10.671,23.79,23.79C1213.232,737.905,1202.561,748.577,1189.442,748.577z M1189.442,703.47&#10;&#9;&#9;&#9;&#9;c-11.756,0-21.319,9.564-21.319,21.319c0,11.753,9.563,21.316,21.319,21.316c11.755,0,21.318-9.563,21.318-21.316&#10;&#9;&#9;&#9;&#9;C1210.761,713.034,1201.197,703.47,1189.442,703.47z"/>
		</g><path d="M1189.442,771.132c-0.684,0-1.236-0.553-1.236-1.236v-45.106c0-0.683,0.553-1.235,1.236-1.235&#10;&#9;&#9;&#9;&#9;c0.683,0,1.235,0.553,1.235,1.235v45.106C1190.678,770.579,1190.125,771.132,1189.442,771.132z" transform="matrix(0.9999999999999999, 0, 0, 0.9999999999999999, 5.4569682106375694e-12, 1.3642420526593924e-12)"/><g transform="matrix(0.9999999999999999, 0, 0, 0.9999999999999999, 3.637978807091713e-12, 9.094947017729282e-13)">
			<path d="M 385.5580139160156 578.1209716796875 L 351.5710144042969 725.10498046875 L 419.54400634765625 725.10498046875 Z" fill="#789600"/>
			<path d="M414.669,724.591h-67.973c-0.377,0-0.734-0.171-0.968-0.466c-0.234-0.294-0.321-0.68-0.237-1.047l33.986-146.984&#10;&#9;&#9;&#9;&#9;c0.258-1.122,2.15-1.122,2.409,0l33.986,146.984c0.084,0.367-0.002,0.753-0.236,1.047&#10;&#9;&#9;&#9;&#9;C415.402,724.42,415.045,724.591,414.669,724.591z M348.25,722.12h64.865l-32.432-140.263L348.25,722.12z"/>
		</g><path d="M 385.554993 678.812012 L 385.554993 771.645996" fill="#789600" transform="matrix(0.9999999999999999, 0, 0, 0.9999999999999999, 5.4569682106375694e-12, 1.3642420526593924e-12)"/><path d="M380.68,771.132c-0.681,0-1.236-0.553-1.236-1.236v-92.834c0-0.683,0.555-1.235,1.236-1.235&#10;&#9;&#9;&#9;&#9;c0.683,0,1.235,0.553,1.235,1.235v92.834C381.916,770.579,381.363,771.132,380.68,771.132z" transform="matrix(0.9999999999999999, 0, 0, 0.9999999999999999, 5.4569682106375694e-12, 1.3642420526593924e-12)"/><g transform="matrix(0.9999999999999999, 0, 0, 0.9999999999999999, 3.637978807091713e-12, 9.094947017729282e-13)">
			<path d="M 1085.89501953125 651.6129760742188 L 1064.81396484375 742.780029296875 L 1106.9759521484375 742.780029296875 Z" fill="#789600"/>
			<path d="M1102.101,742.267h-42.161c-0.376,0-0.733-0.174-0.967-0.469c-0.234-0.294-0.321-0.681-0.237-1.047l21.08-91.165&#10;&#9;&#9;&#9;&#9;c0.259-1.122,2.15-1.122,2.409,0l21.08,91.165c0.084,0.366-0.003,0.753-0.236,1.047&#10;&#9;&#9;&#9;&#9;C1102.834,742.093,1102.477,742.267,1102.101,742.267z M1061.494,739.795h39.052l-19.526-84.446L1061.494,739.795z"/>
		</g><path d="M 1085.89502 714.067017 L 1085.89502 771.645996" fill="#789600" transform="matrix(0.9999999999999999, 0, 0, 0.9999999999999999, 5.4569682106375694e-12, 1.3642420526593924e-12)"/><path d="M1081.02,771.132c-0.683,0-1.235-0.553-1.235-1.236v-57.578c0-0.684,0.553-1.235,1.235-1.235&#10;&#9;&#9;&#9;&#9;c0.684,0,1.236,0.552,1.236,1.235v57.578C1082.256,770.579,1081.703,771.132,1081.02,771.132z" transform="matrix(0.9999999999999999, 0, 0, 0.9999999999999999, 5.4569682106375694e-12, 1.3642420526593924e-12)"/><g transform="matrix(0.9999999999999999, 0, 0, 0.9999999999999999, 3.637978807091713e-12, 9.094947017729282e-13)">
			<path d="M 1122.345947265625 633.8179931640625 L 1097.14794921875 742.7949829101562 L 1147.54296875 742.7949829101562 Z" fill="#789600"/>
			<path d="M1142.668,742.28h-50.395c-0.377,0-0.734-0.174-0.968-0.468c-0.234-0.295-0.321-0.681-0.236-1.048l25.197-108.975&#10;&#9;&#9;&#9;&#9;c0.258-1.122,2.149-1.122,2.408,0l25.197,108.975c0.084,0.367-0.003,0.753-0.236,1.048&#10;&#9;&#9;&#9;&#9;C1143.401,742.106,1143.044,742.28,1142.668,742.28z M1093.827,739.81h47.286l-23.643-102.256L1093.827,739.81z"/>
		</g><path d="M 1122.345947 708.471008 L 1122.345947 771.645996" fill="#789600" transform="matrix(0.9999999999999999, 0, 0, 0.9999999999999999, 5.4569682106375694e-12, 1.3642420526593924e-12)"/><path d="M1117.471,771.132c-0.684,0-1.236-0.553-1.236-1.236v-63.175c0-0.683,0.553-1.235,1.236-1.235&#10;&#9;&#9;&#9;&#9;c0.683,0,1.235,0.553,1.235,1.235v63.175C1118.706,770.579,1118.153,771.132,1117.471,771.132z" transform="matrix(0.9999999999999999, 0, 0, 0.9999999999999999, 5.4569682106375694e-12, 1.3642420526593924e-12)"/>
</svg>